<svg width="152" height="32" viewBox="0 0 152 32" fill="none" xmlns="http://www.w3.org/2000/svg">
<g clip-path="url(#clip0)">
<path d="M48.5517 21.9661H45.0704V10.4094L42.5985 18.1278H40.724L38.2727 10.5137V21.9661H34.7915V2.25293H38.2727L41.651 12.6415L45.0704 2.25293H48.5517V21.9661Z" fill="black"/>
<path d="M56.4409 16.5423V7.65574C56.4409 5.7783 56.9559 4.38065 57.9858 3.42106C59.0158 2.46148 60.3753 1.98169 62.085 1.98169C63.7124 1.98169 65.0307 2.46148 66.0195 3.42106C67.0082 4.38065 67.5026 5.79916 67.5026 7.65574V16.5423C67.5026 18.378 66.9876 19.7757 65.9371 20.7353C64.8865 21.7157 63.5476 22.1955 61.8791 22.1955C60.2105 22.1955 58.8716 21.7157 57.9034 20.7561C56.9353 19.7966 56.4409 18.378 56.4409 16.5423ZM64.0419 16.146V8.21898C64.0419 7.21767 63.8772 6.44584 63.527 5.92432C63.1974 5.40281 62.6824 5.13162 62.0026 5.13162C61.2611 5.13162 60.7461 5.38195 60.4165 5.90346C60.0869 6.42497 59.9221 7.19681 59.9221 8.21898V16.146C59.9221 18.0651 60.6225 19.0247 62.0026 19.0247C62.6618 19.0247 63.1562 18.7744 63.5064 18.2737C63.8566 17.7522 64.0419 17.043 64.0419 16.146Z" fill="black"/>
<path d="M78.9556 2.25293H75.5156V21.9661H78.9556V2.25293Z" fill="black"/>
<path d="M86.9893 16.5423V7.65574C86.9893 5.7783 87.5042 4.38065 88.5342 3.42106C89.5641 2.46148 90.9237 1.98169 92.6334 1.98169C94.2607 1.98169 95.5584 2.44062 96.5472 3.37934C97.536 4.31807 98.0509 5.69486 98.0509 7.53058V8.13554H94.5697V7.50972C94.5697 6.73788 94.3843 6.15379 94.0135 5.75744C93.6427 5.34023 93.1484 5.15249 92.551 5.15249C91.8094 5.15249 91.2945 5.40281 90.9649 5.92432C90.6353 6.44584 90.4705 7.21767 90.4705 8.23984V16.1668C90.4705 18.086 91.1709 19.0456 92.551 19.0456C93.2308 19.0456 93.7457 18.8161 94.0753 18.3363C94.4049 17.8774 94.5903 17.189 94.5903 16.3128V14.2268H92.5304V11.4524H98.0509V16.5423C98.0509 18.378 97.5359 19.7757 96.4854 20.7353C95.4349 21.7157 94.0959 22.1955 92.4274 22.1955C90.7589 22.1955 89.4199 21.7157 88.4518 20.7561C87.463 19.7966 86.9893 18.378 86.9893 16.5423Z" fill="black"/>
<path d="M106.641 19.6297C106.188 18.8162 105.94 17.8774 105.94 16.7927V2.25293H109.422V16.7093C109.422 17.502 109.566 18.086 109.875 18.4615C110.184 18.837 110.637 19.0248 111.255 19.0248C112.47 19.0248 113.088 18.2529 113.088 16.7093V2.25293H116.57V16.7927C116.57 17.8566 116.343 18.7953 115.89 19.6297C115.437 20.4433 114.798 21.09 113.995 21.528C113.191 21.9661 112.264 22.1956 111.255 22.1956C110.246 22.1956 109.339 21.9661 108.536 21.528C107.733 21.0691 107.094 20.4433 106.641 19.6297Z" fill="black"/>
<path d="M128.023 10.3677H132.534V13.4967H128.023V18.8162H133.275V21.9661H124.583V2.25293H133.275V5.42372H128.023V10.3677Z" fill="black"/>
<path d="M144.275 14.0391V21.9661H140.794V2.25293H146.108C148.024 2.25293 149.384 2.71186 150.187 3.65058C150.99 4.58931 151.382 6.0704 151.382 8.13559C151.382 9.4498 151.196 10.5554 150.846 11.4315C150.496 12.3077 149.899 12.9544 149.095 13.4133L152 21.987H148.395L145.944 14.06H144.275V14.0391ZM146.088 10.91C146.788 10.91 147.262 10.6806 147.53 10.2008C147.798 9.74185 147.921 9.05345 147.921 8.13559C147.921 7.21773 147.798 6.52933 147.55 6.0704C147.303 5.61147 146.809 5.382 146.088 5.382H144.275V10.8892H146.088V10.91Z" fill="black"/>
<path d="M38.9525 27.8278C38.0873 27.8278 37.4281 28.4954 37.4281 29.3924C37.4281 30.2894 38.0873 30.9569 38.9525 30.9569C39.4056 30.9569 39.9 30.7274 40.2502 30.352L40.9094 31.0821C40.3738 31.6453 39.6116 31.9999 38.8701 31.9999C37.3663 31.9999 36.2334 30.8735 36.2334 29.3924C36.2334 27.9321 37.3869 26.8265 38.9113 26.8265C39.6322 26.8265 40.3944 27.1603 40.8888 27.661L40.2296 28.4745C39.9206 28.0782 39.4056 27.8278 38.9525 27.8278Z" fill="black"/>
<path d="M47.0683 29.4132C47.0683 30.8735 45.8942 32.0208 44.3699 32.0208C42.8249 32.0208 41.6714 30.8943 41.6714 29.4132C41.6714 27.9321 42.8455 26.8265 44.3699 26.8265C45.9148 26.8265 47.0683 27.9321 47.0683 29.4132ZM42.8455 29.4132C42.8455 30.3102 43.5665 30.9986 44.3905 30.9986C45.2144 30.9986 45.9148 30.3102 45.9148 29.4132C45.9148 28.5162 45.235 27.8278 44.3905 27.8278C43.5459 27.8278 42.8455 28.5162 42.8455 29.4132Z" fill="black"/>
<path d="M49.6229 26.8683L51.0855 29.9765L52.548 26.8683H53.8045V31.9582H52.7746V28.5163L51.4357 31.4367H50.6941L49.3551 28.5163V31.9582H48.3252V26.8683H49.6229Z" fill="black"/>
<path d="M59.6131 28.6414C59.6131 29.8305 58.8715 30.5189 57.5944 30.5189H56.6056V31.9791H55.4727V26.8892H57.615C58.8921 26.8683 59.6131 27.515 59.6131 28.6414ZM58.5419 28.6623C58.5419 28.0991 58.1917 27.807 57.5532 27.807H56.6056V29.5384H57.5532C58.1711 29.5384 58.5419 29.2464 58.5419 28.6623Z" fill="black"/>
<path d="M63.8771 30.9778H61.5494L61.158 31.9582H59.9839L62.1674 26.8683H63.3415L65.4838 31.9582H64.2685L63.8771 30.9778ZM63.5063 30.0391L62.7236 28.0573L61.9202 30.0391H63.5063Z" fill="black"/>
<path d="M67.5852 26.8683L70.0365 30.1434V26.8683H71.1077V31.9583H70.0777L67.647 28.6831V31.9583H66.5347V26.8683H67.5852ZM69.3979 26.2842C68.9653 26.2842 68.78 25.9296 68.5534 25.9296C68.3886 25.9296 68.3062 26.0339 68.3062 26.2633H67.6264C67.6264 25.5332 67.8736 25.1577 68.3474 25.1577C68.7594 25.1577 68.9653 25.5123 69.1919 25.5123C69.3567 25.5123 69.4391 25.408 69.4391 25.1994H70.1189C70.1189 25.9087 69.8717 26.2842 69.3979 26.2842Z" fill="black"/>
<path d="M74.527 25.5958L73.6206 26.3885H72.7349L73.497 25.1995L74.527 25.5958ZM73.8678 26.8683V31.9583H72.7349V26.8683H73.8678Z" fill="black"/>
<path d="M78.8527 30.9778H76.525L76.1336 31.9582H74.9595L77.143 26.8683H78.3171L80.4595 31.9582H79.2441L78.8527 30.9778ZM78.4819 30.0391L77.6992 28.0573L76.8958 30.0391H78.4819Z" fill="black"/>
<path d="M88.9874 29.4133C88.9874 30.9152 87.8957 31.9582 86.3096 31.9582H84.2085V26.8683H86.3508C87.9163 26.8683 88.9874 27.9113 88.9874 29.4133ZM87.8339 29.4133C87.8339 28.4745 87.1953 27.8279 86.3302 27.8279H85.362V30.9778H86.392C87.2159 30.9987 87.8339 30.352 87.8339 29.4133Z" fill="black"/>
<path d="M94.1166 26.8683V27.8279H91.4181V28.9335H93.8488V29.8931H91.4181V31.0195H94.199V31.9791H90.2852V26.8891H94.1166V26.8683Z" fill="black"/>
<path d="M102.15 26.8683V27.8279H99.4518V28.9335H101.882V29.8931H99.4518V31.0195H102.233V31.9791H98.3188V26.8891H102.15V26.8683Z" fill="black"/>
<path d="M105.384 27.7861C105.013 27.7861 104.746 27.9321 104.746 28.2033C104.746 29.1421 107.423 28.6205 107.423 30.4563C107.423 31.4576 106.558 31.9999 105.446 31.9999C104.622 31.9999 103.798 31.687 103.221 31.1864L103.674 30.2477C104.189 30.7066 104.931 31.0195 105.466 31.0195C105.94 31.0195 106.208 30.8526 106.208 30.5397C106.208 29.5801 103.53 30.1434 103.53 28.3285C103.53 27.4106 104.313 26.8265 105.487 26.8265C106.187 26.8265 106.888 27.0351 107.403 27.3898L106.97 28.3494C106.435 27.9947 105.796 27.7861 105.384 27.7861Z" fill="black"/>
<path d="M112.388 26.8683V27.8487H110.843V31.9582H109.71V27.8487H108.186V26.8683H112.388Z" fill="black"/>
<path d="M116.631 31.9582L115.828 30.498H115.725H114.674V31.9582H113.542V26.8683H115.725C117.043 26.8683 117.785 27.515 117.785 28.6414C117.785 29.4341 117.455 29.9974 116.837 30.2894L117.908 31.9791H116.631V31.9582ZM114.674 29.5384H115.725C116.343 29.5384 116.714 29.2464 116.714 28.6623C116.714 28.0991 116.364 27.807 115.725 27.807H114.674V29.5384Z" fill="black"/>
<path d="M122.605 30.9778H120.277L119.886 31.9582H118.712L120.895 26.8683H122.07L124.212 31.9582H122.997L122.605 30.9778ZM122.234 30.0391L121.452 28.0573L120.648 30.0391H122.234Z" fill="black"/>
<path d="M128.723 26.8683V27.8487H127.178V31.9582H126.066V27.8487H124.542V26.8683H128.723Z" fill="black"/>
<path d="M133.708 26.8683V27.8279H131.009V28.9335H133.44V29.8931H131.009V31.0195H133.79V31.9791H129.876V26.8891H133.708V26.8683Z" fill="black"/>
<path d="M138.569 29.3924H139.558V31.3533C139.022 31.7496 138.219 32.0208 137.519 32.0208C135.994 32.0208 134.841 30.8943 134.841 29.4132C134.841 27.953 136.015 26.8265 137.581 26.8265C138.322 26.8265 139.084 27.1186 139.599 27.5775L138.961 28.3911C138.59 28.0364 138.075 27.8278 137.581 27.8278C136.695 27.8278 135.994 28.5162 135.994 29.4132C135.994 30.3102 136.695 30.9986 137.581 30.9986C137.889 30.9986 138.24 30.8943 138.569 30.7275V29.3924Z" fill="black"/>
<path d="M142.215 26.8683V31.9582H141.083V26.8683H142.215Z" fill="black"/>
<path d="M147.2 30.9778H144.873L144.481 31.9582H143.307L145.491 26.8683H146.665L148.807 31.9582H147.592L147.2 30.9778ZM146.83 30.0391L146.047 28.0573L145.243 30.0391H146.83Z" fill="black"/>
<path d="M27.5204 13.5802C27.5204 15.7079 25.8313 17.4185 23.7302 17.4185C21.6291 17.4185 19.9399 15.7079 19.9399 13.5802C19.9399 11.4524 21.6291 9.74182 23.7302 9.74182C25.8313 9.74182 27.5204 11.4524 27.5204 13.5802Z" fill="black"/>
<path d="M12.071 24.4485C5.41754 24.4485 0 18.9622 0 12.2243C0 5.48631 5.41754 0 12.071 0C18.7245 0 24.142 5.48631 24.142 12.2243C24.142 18.9622 18.7245 24.4485 12.071 24.4485ZM12.071 0.792699C5.85012 0.792699 0.782762 5.92438 0.782762 12.2243C0.782762 18.5241 5.85012 23.6349 12.0504 23.6349C18.2713 23.6349 23.3181 18.5033 23.3181 12.2243C23.3387 5.92438 18.2919 0.792699 12.071 0.792699Z" fill="black"/>
</g>
<defs>
<clipPath id="clip0">
<rect width="152" height="32" fill="white"/>
</clipPath>
</defs>
</svg>
