<svg width="23" height="19" viewBox="0 0 23 19" fill="none" xmlns="http://www.w3.org/2000/svg">
<path d="M6.16016 18.085C8.58691 18.085 10.6377 16.2051 10.6377 13.6074C10.6377 10.8047 8.58691 9.12988 6.16016 9.12988C5.16895 9.12988 4.24609 9.50586 3.5625 10.0527C3.42578 9.64258 3.35742 9.19824 3.35742 8.58301C3.35742 5.84863 5.81836 2.90918 8.68945 1.71289L8.04004 0.448242C3.08398 2.77246 0.828125 6.70312 0.828125 11.249C0.828125 12.377 1.0332 14.3252 2.02441 15.8633C2.87891 17.1963 4.10938 18.085 6.16016 18.085ZM18.0547 18.085C20.5156 18.085 22.5322 16.2051 22.5322 13.6074C22.5322 10.8047 20.5156 9.12988 18.0547 9.12988C17.0635 9.12988 16.1748 9.50586 15.457 10.0527C15.3203 9.64258 15.252 9.19824 15.252 8.58301C15.252 5.84863 17.7129 2.90918 20.584 1.71289L19.9346 0.448242C14.9785 2.77246 12.7227 6.70312 12.7227 11.249C12.7227 12.377 12.9277 14.3252 13.9189 15.8633C14.7734 17.1963 16.0381 18.085 18.0547 18.085Z" fill="#7CBEE8"/>
</svg>
