<svg id="Capa_1" data-name="Capa 1" xmlns="http://www.w3.org/2000/svg" viewBox="0 0 304.95 286.54"><defs><style>.cls-1,.cls-5{fill:#fff;}.cls-1,.cls-2,.cls-3{stroke:#000;stroke-miterlimit:10;}.cls-2,.cls-3{fill:none;}.cls-3{stroke-width:0.5px;}.cls-4{fill:#f7942c;}</style></defs><title>fondocirculo</title><path class="cls-1" d="M796.61,103.64c-28-73.89-109.45-111.52-181.84-84S506.42,129.23,534.46,203.12s109.45,111.51,181.84,84S824.65,177.53,796.61,103.64Z" transform="translate(-501.69 -10.11)"/><path class="cls-2" d="M801.05,193.07c-15.51,13.78-31.59,26.9-47.58,40.12-16.16,13.36-31.72,27.44-48,40.68-9.09,7.41-18.34,14.63-27.51,21.94" transform="translate(-501.69 -10.11)"/><path class="cls-2" d="M671.85,296q50.63-41.49,101.31-82.88,14.26-11.61,28.55-23.17" transform="translate(-501.69 -10.11)"/><path class="cls-2" d="M710.8,289.16c21.52-19.91,43-39.85,64.76-59.52q9.18-8.31,18.42-16.55" transform="translate(-501.69 -10.11)"/><path class="cls-2" d="M621.26,288.36C645,274,666,258,690,243c20-13,38-24,58-38a64.7,64.7,0,0,1,9-8c10-6,20-11,28.82-17.51" transform="translate(-501.69 -10.11)"/><path class="cls-2" d="M597.42,277C634,255,669,235,707,212c27-16,53-30,78.82-44.82" transform="translate(-501.69 -10.11)"/><path class="cls-2" d="M704.12,291C703,284,707,274,699,270c-16,0-33-2-49-1-.09-3,13.11-.77,0,0,0-2,3-4,5-3l1,1c-1,3-5,3-6,1-1-6,2-12,1-19-1-5-6-6-10-6-14,2-27,1-41,1a4,4,0,0,1-4-2c-2-9,6-21-4-26-17,1-33,1-50,1-1-9,1-17-1-26-12-2-24-2-35.85-2.43" transform="translate(-501.69 -10.11)"/><path class="cls-2" d="M731.44,215.35l37,1.76,2.36.8.18,16.14" transform="translate(-501.69 -10.11)"/><path class="cls-2" d="M594.63,275.18l75.2-43.65,75.27-43.7,41.67-24.2" transform="translate(-501.69 -10.11)"/><path class="cls-2" d="M709.35,229.93v-18.1l-2-1.68-44.93-1" transform="translate(-501.69 -10.11)"/><path class="cls-2" d="M567.74,254.36C581,247,594,242,607,236c51-26,101-48,150.9-72.92" transform="translate(-501.69 -10.11)"/><path class="cls-2" d="M552.9,237.58c26.21-12,53.14-22.53,79.73-33.69C659.44,192.63,686.22,181.27,713,170q22.69-9.52,45.46-18.91" transform="translate(-501.69 -10.11)"/><path class="cls-2" d="M550.5,234.19c26.84-11.12,53.32-23.1,80.17-34.18q41-16.94,82.08-33.65,22.86-9.26,45.78-18.3" transform="translate(-501.69 -10.11)"/><path class="cls-2" d="M728.32,148.94q-107,37.59-213.12,75.43" transform="translate(-501.69 -10.11)"/><path class="cls-2" d="M728.93,136.09C654,159,578,181,503,204.6" transform="translate(-501.69 -10.11)"/><path class="cls-2" d="M728.83,134.21C675,151,622,166,567,183c-21,6-42,13-63.08,18.28" transform="translate(-501.69 -10.11)"/><path class="cls-2" d="M635.1,223V203.36l-5.66-1.75L581,200.83" transform="translate(-501.69 -10.11)"/><path class="cls-2" d="M691.31,195.17V179.59l-5-1.53L651.05,176" transform="translate(-501.69 -10.11)"/><path class="cls-2" d="M731.44,176V162.6l-4.62-1.33-29.18-1.45" transform="translate(-501.69 -10.11)"/><path class="cls-2" d="M777.9,184.72V171.83l-2-1.86L745,169.34" transform="translate(-501.69 -10.11)"/><path class="cls-2" d="M749.08,203.74V188l-1.63-1.53L710.36,186" transform="translate(-501.69 -10.11)"/><path class="cls-2" d="M787.43,166H751.72" transform="translate(-501.69 -10.11)"/><path class="cls-2" d="M755.14,147.68v19.47" transform="translate(-501.69 -10.11)"/><path class="cls-2" d="M621.7,186V168.59l-3.42-1.44-43.95-1.63" transform="translate(-501.69 -10.11)"/><path class="cls-2" d="M638.71,149.44l35.81.95,2.21,1.81v14.65" transform="translate(-501.69 -10.11)"/><path class="cls-2" d="M678.92,139.26h32.92l3,1.36v13" transform="translate(-501.69 -10.11)"/><path class="cls-2" d="M512.73,181.57C575,165,638,151,699.68,133.86" transform="translate(-501.69 -10.11)"/><path class="cls-2" d="M698.6,119.21C641,131,583,143,524.78,154.82" transform="translate(-501.69 -10.11)"/><path class="cls-2" d="M524.86,158.51C583,145,641,134,698.72,121.54" transform="translate(-501.69 -10.11)"/><path class="cls-2" d="M726.24,152.2V132.35" transform="translate(-501.69 -10.11)"/><path class="cls-2" d="M696.29,137.38V117.52" transform="translate(-501.69 -10.11)"/><path class="cls-2" d="M667.19,104.56v18.09" transform="translate(-501.69 -10.11)"/><path class="cls-2" d="M612.08,139.71v16.21" transform="translate(-501.69 -10.11)"/><path class="cls-2" d="M663.42,129v13.82" transform="translate(-501.69 -10.11)"/><path class="cls-2" d="M669.62,106.67c-37.11,3.37-73.69,10.75-110.52,16.2-10.6,1.57-21.22,3-31.88,4.1" transform="translate(-501.69 -10.11)"/><path class="cls-3" d="M527.62,124C575,119,620,110,667.19,105.81" transform="translate(-501.69 -10.11)"/><path class="cls-3" d="M534.63,98.81C568,97,601,93,634.34,91.57" transform="translate(-501.69 -10.11)"/><path class="cls-2" d="M652.28,122.4V109.11" transform="translate(-501.69 -10.11)"/><path class="cls-2" d="M670.53,119C622,129,573,135,525.09,144.75" transform="translate(-501.69 -10.11)"/><path class="cls-2" d="M602.58,116v15.32" transform="translate(-501.69 -10.11)"/><path class="cls-2" d="M699.65,122.65l-36.23-2.41" transform="translate(-501.69 -10.11)"/><path class="cls-2" d="M722.42,151.1l36.91,1.1" transform="translate(-501.69 -10.11)"/><path class="cls-2" d="M691.74,135.94l37.94.78" transform="translate(-501.69 -10.11)"/><path class="cls-2" d="M669.52,107.65l-32.82-1.59" transform="translate(-501.69 -10.11)"/><path class="cls-2" d="M636.7,91.49v16.16" transform="translate(-501.69 -10.11)"/><path class="cls-2" d="M642,104.23C604,109,567,113,528.71,117.08" transform="translate(-501.69 -10.11)"/><path class="cls-2" d="M595.49,95.66v13.82" transform="translate(-501.69 -10.11)"/><path class="cls-2" d="M534.43,100.67c27.52-2.18,55-4.47,82.58-6.25,7.7-.5,15.4-1.06,23.06-1.93" transform="translate(-501.69 -10.11)"/><path class="cls-2" d="M608.06,91.14l32,2.33" transform="translate(-501.69 -10.11)"/><path class="cls-2" d="M804.53,175.44C801,176,798,178,794,177c-7-2-3-11-4-16,0-1-2-1-3-1l1,1c1,0,1-1,2-1-6,0-.39,1.1,0,0-10,0-22,5-30-2-2-2,2-7,1-8-8-7-20-2-30-3,.77-2.4,5.86.14,0,0,1-5,4-11,0-13-8-4-18,0-27-3-4-1-1-8-2-12-9-5-20,1-29-3-5-3,0-10-3-14-2-2-5-1-8-2-7-2-14,3-20,0-1-4,1-9-1-13-9-1-19,1-28-1-2-4-1-9-1-13-8-2-15,0-23,0-3,0-6-2-8-4-1-3,3-7,0-10-6-4-14-1-20.6-1.69" transform="translate(-501.69 -10.11)"/><path class="cls-2" d="M722.31,27.06l1.26,66.34" transform="translate(-501.69 -10.11)"/><path class="cls-2" d="M633.21,27.06,633.84,88" transform="translate(-501.69 -10.11)"/><path class="cls-2" d="M647.71,11.45,648,29.09" transform="translate(-501.69 -10.11)"/><path class="cls-2" d="M707.25,17.46l.22,11.63" transform="translate(-501.69 -10.11)"/><path class="cls-2" d="M707.89,85.61v38.07" transform="translate(-501.69 -10.11)"/><path class="cls-2" d="M722.42,117.52v16.84" transform="translate(-501.69 -10.11)"/><path class="cls-2" d="M701.86,121c33.14,0,67.14,0,100.29,0" transform="translate(-501.69 -10.11)"/><path class="cls-2" d="M640.07,90.38C690,90,741,90,790.6,90.22" transform="translate(-501.69 -10.11)"/><path class="cls-2" d="M598.9,27c43.1,0,87.1,0,130,0" transform="translate(-501.69 -10.11)"/><path class="cls-2" d="M535.79,96c24.11-1.3,48.17-3.43,72.27-4.87" transform="translate(-501.69 -10.11)"/><path class="cls-2" d="M544.28,79.31c21.49-.35,43-1.32,64.43-2" transform="translate(-501.69 -10.11)"/><path class="cls-2" d="M607.38,92.39V75.16" transform="translate(-501.69 -10.11)"/><path class="cls-2" d="M589.16,77.87V92.29" transform="translate(-501.69 -10.11)"/><path class="cls-2" d="M556.23,62.26c5.42-1.08,10.85,1.69,16.27.38" transform="translate(-501.69 -10.11)"/><path class="cls-2" d="M577.65,60.76C578,65.83,578,70.92,578,76c-10.83-1-21.6,1.87-32.43.86" transform="translate(-501.69 -10.11)"/><path class="cls-4" d="M521.14,231.21a33.69,33.69,0,0,1-16.66-43.91,32.06,32.06,0,0,1,43-16.33,33.69,33.69,0,0,1,16.67,43.91A32.08,32.08,0,0,1,521.14,231.21Z" transform="translate(-501.69 -10.11)"/><path class="cls-5" d="M647.21,266.86a1.5,1.5,0,0,0,0-3,1.5,1.5,0,0,0,0,3Z" transform="translate(-501.69 -10.11)"/><path class="cls-5" d="M654.47,269.42a14.44,14.44,0,0,1-1.61,0,.38.38,0,1,0,0,.75,14.44,14.44,0,0,0,1.61,0,.38.38,0,0,0,.37-.37.39.39,0,0,0-.37-.38Z" transform="translate(-501.69 -10.11)"/><path class="cls-5" d="M654.93,269.34c-.65,0-1.29.05-1.94,0a4.58,4.58,0,0,0-1.81.08.38.38,0,0,0-.26.46.37.37,0,0,0,.46.26,1.86,1.86,0,0,1,.78-.09l.91,0c.62,0,1.24,0,1.86,0s.48-.77,0-.75Z" transform="translate(-501.69 -10.11)"/><path class="cls-5" d="M657.14,266.89l-1.55.41a6.1,6.1,0,0,1-1.52.29.38.38,0,0,0,0,.75,6.74,6.74,0,0,0,1.66-.3l1.61-.43a.37.37,0,0,0-.2-.72Z" transform="translate(-501.69 -10.11)"/><path class="cls-5" d="M656.66,266.45l-1.72.75a.38.38,0,0,0-.14.51.4.4,0,0,0,.52.14l1.72-.75a.38.38,0,0,0,.14-.51.4.4,0,0,0-.52-.14Z" transform="translate(-501.69 -10.11)"/><path class="cls-5" d="M656.32,266.12a22,22,0,0,0-2.78,1.63.38.38,0,0,0,.38.65,20.85,20.85,0,0,1,2.78-1.63.39.39,0,0,0,.13-.52.37.37,0,0,0-.51-.13Z" transform="translate(-501.69 -10.11)"/><path class="cls-5" d="M656.86,267.57c-1.07,0-2.12.24-3.19.2-.48,0-.48.73,0,.75,1.07,0,2.12-.24,3.19-.2.49,0,.49-.73,0-.75Z" transform="translate(-501.69 -10.11)"/><path class="cls-5" d="M654,267.87a2.82,2.82,0,0,1-.58,0h.1l-.1,0a.38.38,0,0,0-.15,0,.23.23,0,0,0-.14,0,.39.39,0,0,0-.17.23.38.38,0,0,0,0,.29.41.41,0,0,0,.22.17,3.4,3.4,0,0,0,.78,0,.36.36,0,0,0,.26-.11.33.33,0,0,0,.11-.26.35.35,0,0,0-.11-.27.36.36,0,0,0-.26-.11Z" transform="translate(-501.69 -10.11)"/><path class="cls-5" d="M656.26,266a4.15,4.15,0,0,0-1.39,1,4.62,4.62,0,0,1-1.25.88.38.38,0,0,0-.13.51.39.39,0,0,0,.51.14,5.43,5.43,0,0,0,1.31-.92c.19-.17.37-.34.57-.5a1.7,1.7,0,0,1,.58-.39.39.39,0,0,0,.26-.46.37.37,0,0,0-.46-.26Z" transform="translate(-501.69 -10.11)"/><path class="cls-5" d="M653.64,268.45a.38.38,0,0,0,0-.75.38.38,0,0,0,0,.75Z" transform="translate(-501.69 -10.11)"/><path class="cls-5" d="M654.77,264.84l-1.72,1.09a17.28,17.28,0,0,0-1.67,1.11.37.37,0,0,0,0,.53.39.39,0,0,0,.53,0,16.31,16.31,0,0,1,1.57-1l1.67-1.05c.4-.26,0-.91-.38-.65Z" transform="translate(-501.69 -10.11)"/><path class="cls-5" d="M654.47,265.13a.34.34,0,0,1-.16.19l-.32.17a4,4,0,0,0-.74.49,12.69,12.69,0,0,1-1.64,1c-.42.23,0,.88.38.65a13.29,13.29,0,0,0,1.74-1.13,3.8,3.8,0,0,1,.74-.46,1.41,1.41,0,0,0,.65-.58.38.38,0,0,0-.65-.38Z" transform="translate(-501.69 -10.11)"/><path class="cls-5" d="M654.06,264.85a15.26,15.26,0,0,1-1.92,1,3.16,3.16,0,0,0-.89.64,2.15,2.15,0,0,0-.5,1,.37.37,0,0,0,.72.2,1.5,1.5,0,0,1,.38-.79,3.25,3.25,0,0,1,.81-.51,13.76,13.76,0,0,0,1.78-.94.39.39,0,0,0,.13-.51.37.37,0,0,0-.51-.14Z" transform="translate(-501.69 -10.11)"/><path class="cls-5" d="M651.31,267.38l0,0a.25.25,0,0,0-.08.12.32.32,0,0,0,0,.14.4.4,0,0,0,0,.15.42.42,0,0,0,.08.12l.07.05a.35.35,0,0,0,.19.06l.1,0a.46.46,0,0,0,.17-.09l0,0a.37.37,0,0,0,.07-.12.28.28,0,0,0,0-.15.23.23,0,0,0,0-.14.24.24,0,0,0-.07-.12l-.08-.06a.41.41,0,0,0-.19-.05h-.1a.34.34,0,0,0-.16.1Z" transform="translate(-501.69 -10.11)"/><path class="cls-5" d="M653.25,265.08a2.69,2.69,0,0,0-1.55.68c-.21.16-.42.31-.64.45a2,2,0,0,0-.62.57.39.39,0,0,0,.14.51.38.38,0,0,0,.51-.14h0l0-.06a.52.52,0,0,1,.11-.1h0l.08-.06a.57.57,0,0,0,.13-.08,6.51,6.51,0,0,0,.6-.43,4.7,4.7,0,0,1,.59-.4,1.19,1.19,0,0,1,.29-.12l.16,0h.13a.38.38,0,0,0,.38-.37.39.39,0,0,0-.38-.38Z" transform="translate(-501.69 -10.11)"/><path class="cls-5" d="M650.38,267.07a1.1,1.1,0,0,0,.26.92.82.82,0,0,0,.51.22.69.69,0,0,0,.51-.21.46.46,0,0,0,.11-.27.36.36,0,0,0-.11-.26.35.35,0,0,0-.27-.11.33.33,0,0,0-.26.11l0,0,.08-.06-.07,0,.09,0-.08,0,.1,0h-.1l.1,0-.09,0,.09,0-.08-.05.08.06-.08-.08.06.08a.54.54,0,0,1-.07-.13l0,.09a.75.75,0,0,1,0-.16v.1a1.71,1.71,0,0,1,0-.32.39.39,0,0,0-.11-.27.41.41,0,0,0-.26-.11.44.44,0,0,0-.27.11l-.06.08a.41.41,0,0,0,0,.19Z" transform="translate(-501.69 -10.11)"/><path d="M652.68,268.55a.38.38,0,0,0,0-.75.38.38,0,0,0,0,.75Z" transform="translate(-501.69 -10.11)"/><path d="M652.67,268.45a.59.59,0,0,1,.23-.31c.15-.09.32-.16.47-.24.36-.18.73-.36,1.08-.55s.59-.42.91-.59a6.69,6.69,0,0,0,.93-.46.38.38,0,0,0,.14-.51.37.37,0,0,0-.51-.13,8.67,8.67,0,0,1-1,.47c-.35.19-.64.46-1,.64l-1.11.56a2.4,2.4,0,0,0-.47.27,1.27,1.27,0,0,0-.35.48.37.37,0,1,0,.65.37Z" transform="translate(-501.69 -10.11)"/><path d="M657.61,268.31a18.37,18.37,0,0,0-5,.27.38.38,0,0,0,.2.73,17.31,17.31,0,0,1,4.77-.25.38.38,0,0,0,0-.75Z" transform="translate(-501.69 -10.11)"/><path d="M652.62,267.3l0,0s-.05.05,0,0,0,0,0,0l0,0-.21.12-.1.05-.05,0s.07,0,0,0l-.22.09a4.86,4.86,0,0,0-.93.41.37.37,0,1,0,.37.65l.21-.12.12-.05,0,0s-.06,0,0,0l.46-.17a3,3,0,0,0,.95-.54.37.37,0,0,0,0-.53.39.39,0,0,0-.53,0Z" transform="translate(-501.69 -10.11)"/><path d="M650.81,268.36a.09.09,0,0,1,.06,0l0,0,0-.05h0c0-.06-.09-.13-.14-.2l-.06-.12c0,.06,0,0,0-.05s0-.19-.08-.28-.08-.2-.13-.3l0,0s0-.09-.05-.14a2.33,2.33,0,0,1-.07-.25l0-.15c0,.07,0-.08,0-.09a.38.38,0,1,0-.75,0,2.64,2.64,0,0,0,.14.69c0,.12.09.23.14.35a.3.3,0,0,0,0,.08s0,0,0,0a1,1,0,0,1,0,.16,2.29,2.29,0,0,0,.27.62,1.18,1.18,0,0,0,.55.51.37.37,0,0,0,.46-.26.38.38,0,0,0-.26-.46Z" transform="translate(-501.69 -10.11)"/><path d="M649.46,266.43a3.52,3.52,0,0,1,.42,1.38,12.54,12.54,0,0,0,.49,1.72.39.39,0,0,0,.47.26.38.38,0,0,0,.26-.46,12.91,12.91,0,0,1-.53-1.84,3.48,3.48,0,0,0-.58-1.59.37.37,0,1,0-.53.53Z" transform="translate(-501.69 -10.11)"/></svg>