<svg width="16" height="16" viewBox="0 0 16 16" fill="none" xmlns="http://www.w3.org/2000/svg">
<g clip-path="url(#clip0)">
<path d="M12.0555 5.23976V5.23991L12.0679 5.2396C13.061 5.21497 13.9006 5.533 14.4958 6.16978C15.0947 6.8106 15.4999 7.83254 15.4999 9.31468V14.6574H12.9999V9.6454C12.9999 8.90975 12.8689 8.21423 12.51 7.68905C12.1299 7.13277 11.537 6.83038 10.7777 6.83038C9.57233 6.83038 8.87361 7.61849 8.54505 8.3901C8.38742 8.71576 8.38819 9.09228 8.38877 9.37559C8.3888 9.39237 8.38883 9.40883 8.38883 9.42492V14.6574H5.88918C5.89015 14.287 5.89306 13.7186 5.89654 13.0378C5.90865 10.6709 5.9277 6.9454 5.8965 5.46024H8.44439V6.30599V6.44846V6.44847V6.44848V6.44849V6.4485V6.4485V6.44851V6.44852V6.44853V6.44854V6.44855V6.44856V6.44857V6.44858V6.44859V6.4486V6.44861V6.44862V6.44864V6.44865V6.44866V6.44867V6.44868V6.44868V6.44869V6.4487V6.44871V6.44872V6.44873V6.44874V6.44874V6.44875V6.44876V6.44877V6.44878V6.4488V6.44881V6.44882V6.44883V6.44884V6.44885V6.44886V6.44888V6.44889V6.4489V6.44891V6.44893V6.44894V6.44895V6.44897V6.44898V6.449V6.44901V6.44903V6.44904V6.44906V6.44907V6.44909V6.44911V6.44912V6.44914V6.44916V6.44917V6.44919V6.44921V6.44923V6.44925V6.44927V6.44929V6.44931V6.44933V6.44935V6.44937V6.44939V6.44941V6.44943V6.44945V6.44948V6.4495V6.44952V6.44954V6.44957V6.44959V6.44962V6.44964V6.44967V6.44969V6.44972V6.44974V6.44977V6.4498V6.44982V6.44985V6.44988V6.44991V6.44994V6.44996V6.44999V6.45002V6.45005V6.45008V6.45012V6.45015V6.45018V6.45021V6.45024V6.45028V6.45031V6.45034V6.45038V6.45041V6.45045V6.45048V6.45052V6.45055V6.45059V6.45063V6.45067V6.4507V6.45074V6.45078V6.45082V6.45086V6.4509V6.45094V6.45098V6.45102V6.45107V6.45111V6.45115V6.45119V6.45124V6.45128V6.45133V6.45137V6.45142V6.45146V6.45151V6.45156V6.4516V6.45165V6.4517V6.45175V6.4518V6.45185V6.4519V6.45195V6.452V6.45205V6.45211V6.45216V6.45221V6.45227V6.45232V6.45238V6.45243V6.45249V6.45255V6.4526V6.45266V6.45272V6.45278V6.45284V6.4529V6.45296V6.45302V6.45308V6.45314V6.45321V6.45327V6.45333V6.4534V6.45346V6.45353V6.45359V6.45366V6.45373V6.45379V6.45386V6.45393V6.454V6.45407V6.45414V6.45421V6.45429V6.45436V6.45443V6.4545V6.45458V6.45465V6.45473V6.45481V6.45488V6.45496V6.45504V6.45512V6.45519V6.45527V6.45535V6.45544V6.45552V6.4556V6.45568V6.45577V6.45585V6.45594V6.45602V6.45611V6.45619V6.45628V6.45637V6.45646V6.45655V6.45664V6.45673V6.45682V6.45691V6.45701V6.4571V6.45719V6.45729V6.45738V6.45748V6.45758V6.45767V6.45777V6.45787V6.45797V6.45807V6.45817V6.45828V6.45838V6.45848V6.45858V6.45869V6.45879V6.4589V6.45901V6.45912V6.45922V6.45933V6.45944V6.45955V6.45966V6.45978V6.45989V6.46V6.46012V6.46023V6.46035V6.46046V6.46058V6.4607V6.46082V6.46094V6.46106V6.46118V6.4613V6.46142V6.46155V6.46167V6.4618V6.46192V6.46205V6.46218V6.4623V6.46243V6.46256V6.46269V6.46282V6.46296V6.46309V6.46322V6.46336V6.46349V6.46363V6.46377V6.4639V6.46404V6.46418V6.46432V6.46446V6.46461V6.46475V6.46489V6.46504V6.46518V6.46533V6.46548V6.46562V6.46577V6.46592V6.46607V6.46622V6.46638V6.46653V6.46668V6.46684V6.46699V6.46715V6.46731V6.46747V6.46763V6.46779V6.46795V6.46811V6.46827V6.46843V6.4686V6.46876V6.46893V6.4691V6.46927V6.46944V6.46961V6.46978V6.46995V6.47012V6.4703V6.47047V6.47065V6.47082V6.471V6.47118V6.47136V6.47154V6.47172V6.4719V6.47208V6.47227V6.47245V6.47264V6.47283V6.47301V6.4732V6.47339V6.47358V6.47377V6.47397V6.47416V6.47436V6.47455V6.47475V6.47495V6.47514V6.47534V6.47554V6.47575V6.47595V6.47615V6.47636V6.47656V6.47677V6.47698V6.47719V6.47739V6.47761V6.47782V6.47803V6.47824V6.47846V6.47867V6.47889V6.47911V6.47933V6.47955V6.47977V6.47999V6.48021V6.48044V6.48066V6.48089V6.48112V6.48134V6.48157V6.4818V6.48204V6.48227V6.4825V6.48274V6.48297V6.48321V6.48345V6.48369V6.48393V6.48417V6.48441V6.48465V6.4849V6.48514V6.48539V6.48564V6.48589V6.48614V6.48639V6.48664V6.48689V6.48715V6.4874V6.48766V6.48792V6.48818V6.48844V6.4887V6.48896V6.48923V6.48949V6.48976V6.49002V6.49029V6.49056V6.49083V6.4911V6.49138V6.49165V6.49192V6.4922V6.49248V6.49276V6.49304V6.49332V6.4936V6.49388V6.49417V6.49445V6.49474V6.49503V6.49532V6.49561V6.4959V6.49619V6.49649V6.49678V6.49708V6.49737V6.49767V6.49797V6.49827V6.49858V6.49888V6.49919V6.49949V6.4998V6.50011V6.50042V6.50073V6.50104V6.50135V6.50167V6.50199V6.5023V6.50262V6.50294V6.50326V6.50358H8.94439H9.03326L9.3693 6.71201C9.5727 6.38407 9.84835 6.02092 10.2616 5.73796C10.6685 5.45933 11.236 5.23976 12.0555 5.23976ZM3.22217 5.46024V14.6574H0.722168V5.46024H3.22217Z" fill="white" stroke="white"/>
<path d="M3.16667 1.81895C3.16667 2.54367 2.57343 3.13789 1.83333 3.13789C1.09323 3.13789 0.5 2.54367 0.5 1.81895C0.5 1.09422 1.09323 0.5 1.83333 0.5C2.57343 0.5 3.16667 1.09422 3.16667 1.81895Z" fill="white" stroke="white"/>
</g>
<defs>
<clipPath id="clip0">
<rect width="16" height="15.1579" fill="white"/>
</clipPath>
</defs>
</svg>
