<svg width="152" height="32" viewBox="0 0 152 32" fill="none" xmlns="http://www.w3.org/2000/svg">
<g clip-path="url(#clip0)">
<path d="M48.5517 21.9661H45.0704V10.4094L42.5985 18.1278H40.724L38.2727 10.5137V21.9661H34.7915V2.25293H38.2727L41.651 12.6415L45.0704 2.25293H48.5517V21.9661Z" fill="black"/>
<path d="M56.4409 16.5421V7.6555C56.4409 5.77806 56.9559 4.3804 57.9858 3.42082C59.0158 2.46124 60.3753 1.98145 62.085 1.98145C63.7124 1.98145 65.0307 2.46124 66.0195 3.42082C67.0082 4.3804 67.5026 5.79892 67.5026 7.6555V16.5421C67.5026 18.3778 66.9876 19.7754 65.9371 20.735C64.8865 21.7155 63.5476 22.1953 61.8791 22.1953C60.2105 22.1953 58.8716 21.7155 57.9034 20.7559C56.9353 19.7963 56.4409 18.3778 56.4409 16.5421ZM64.0419 16.1457V8.21873C64.0419 7.21743 63.8772 6.44559 63.527 5.92408C63.1974 5.40257 62.6824 5.13138 62.0026 5.13138C61.2611 5.13138 60.7461 5.38171 60.4165 5.90322C60.0869 6.42473 59.9221 7.19657 59.9221 8.21873V16.1457C59.9221 18.0649 60.6225 19.0245 62.0026 19.0245C62.6618 19.0245 63.1562 18.7741 63.5064 18.2735C63.8566 17.752 64.0419 17.0427 64.0419 16.1457Z" fill="black"/>
<path d="M78.9556 2.25293H75.5156V21.9661H78.9556V2.25293Z" fill="black"/>
<path d="M86.9893 16.5421V7.6555C86.9893 5.77806 87.5042 4.3804 88.5342 3.42082C89.5641 2.46124 90.9237 1.98145 92.6334 1.98145C94.2607 1.98145 95.5584 2.44038 96.5472 3.3791C97.536 4.31782 98.0509 5.69461 98.0509 7.53034V8.13529H94.5697V7.50948C94.5697 6.73764 94.3843 6.15354 94.0135 5.7572C93.6427 5.33999 93.1484 5.15224 92.551 5.15224C91.8094 5.15224 91.2945 5.40257 90.9649 5.92408C90.6353 6.44559 90.4705 7.21743 90.4705 8.23959V16.1666C90.4705 18.0857 91.1709 19.0453 92.551 19.0453C93.2308 19.0453 93.7457 18.8159 94.0753 18.3361C94.4049 17.8771 94.5903 17.1887 94.5903 16.3126V14.2266H92.5304V11.4521H98.0509V16.5421C98.0509 18.3778 97.5359 19.7754 96.4854 20.735C95.4349 21.7155 94.0959 22.1953 92.4274 22.1953C90.7589 22.1953 89.4199 21.7155 88.4518 20.7559C87.463 19.7963 86.9893 18.3778 86.9893 16.5421Z" fill="black"/>
<path d="M106.641 19.6297C106.188 18.8162 105.94 17.8774 105.94 16.7927V2.25293H109.422V16.7093C109.422 17.502 109.566 18.086 109.875 18.4615C110.184 18.837 110.637 19.0248 111.255 19.0248C112.47 19.0248 113.088 18.2529 113.088 16.7093V2.25293H116.57V16.7927C116.57 17.8566 116.343 18.7953 115.89 19.6297C115.437 20.4433 114.798 21.09 113.995 21.528C113.191 21.9661 112.264 22.1956 111.255 22.1956C110.246 22.1956 109.339 21.9661 108.536 21.528C107.733 21.0691 107.094 20.4433 106.641 19.6297Z" fill="black"/>
<path d="M128.023 10.3677H132.534V13.4967H128.023V18.8162H133.275V21.9661H124.583V2.25293H133.275V5.42372H128.023V10.3677Z" fill="black"/>
<path d="M144.275 14.0391V21.9661H140.794V2.25293H146.108C148.024 2.25293 149.384 2.71186 150.187 3.65058C150.99 4.58931 151.382 6.0704 151.382 8.13559C151.382 9.4498 151.196 10.5554 150.846 11.4315C150.496 12.3077 149.899 12.9544 149.095 13.4133L152 21.987H148.395L145.944 14.06H144.275V14.0391ZM146.088 10.91C146.788 10.91 147.262 10.6806 147.53 10.2008C147.798 9.74185 147.921 9.05345 147.921 8.13559C147.921 7.21773 147.798 6.52933 147.55 6.0704C147.303 5.61147 146.809 5.382 146.088 5.382H144.275V10.8892H146.088V10.91Z" fill="black"/>
<path d="M38.9525 27.8284C38.0873 27.8284 37.4281 28.496 37.4281 29.393C37.4281 30.29 38.0873 30.9575 38.9525 30.9575C39.4056 30.9575 39.9 30.7281 40.2502 30.3526L40.9094 31.0827C40.3738 31.6459 39.6116 32.0005 38.8701 32.0005C37.3663 32.0005 36.2334 30.8741 36.2334 29.393C36.2334 27.9328 37.3869 26.8271 38.9113 26.8271C39.6322 26.8271 40.3944 27.1609 40.8888 27.6616L40.2296 28.4751C39.9206 28.0788 39.4056 27.8284 38.9525 27.8284Z" fill="black"/>
<path d="M47.0683 29.4138C47.0683 30.8741 45.8942 32.0214 44.3699 32.0214C42.8249 32.0214 41.6714 30.8949 41.6714 29.4138C41.6714 27.9328 42.8455 26.8271 44.3699 26.8271C45.9148 26.8271 47.0683 27.9328 47.0683 29.4138ZM42.8455 29.4138C42.8455 30.3109 43.5665 30.9992 44.3905 30.9992C45.2144 30.9992 45.9148 30.3109 45.9148 29.4138C45.9148 28.5168 45.235 27.8284 44.3905 27.8284C43.5459 27.8284 42.8455 28.5168 42.8455 29.4138Z" fill="black"/>
<path d="M49.6229 26.8691L51.0855 29.9774L52.548 26.8691H53.8045V31.9591H52.7746V28.5171L51.4357 31.4376H50.6941L49.3551 28.5171V31.9591H48.3252V26.8691H49.6229Z" fill="black"/>
<path d="M59.6131 28.6414C59.6131 29.8305 58.8715 30.5189 57.5944 30.5189H56.6056V31.9791H55.4727V26.8892H57.615C58.8921 26.8683 59.6131 27.515 59.6131 28.6414ZM58.5419 28.6623C58.5419 28.0991 58.1917 27.807 57.5532 27.807H56.6056V29.5384H57.5532C58.1711 29.5384 58.5419 29.2464 58.5419 28.6623Z" fill="black"/>
<path d="M63.8771 30.9787H61.5494L61.158 31.9591H59.9839L62.1674 26.8691H63.3415L65.4838 31.9591H64.2685L63.8771 30.9787ZM63.5063 30.0399L62.7236 28.0582L61.9202 30.0399H63.5063Z" fill="black"/>
<path d="M67.5852 26.8688L70.0365 30.1439V26.8688H71.1077V31.9587H70.0777L67.647 28.6836V31.9587H66.5347V26.8688H67.5852ZM69.3979 26.2847C68.9653 26.2847 68.78 25.93 68.5534 25.93C68.3886 25.93 68.3062 26.0343 68.3062 26.2638H67.6264C67.6264 25.5337 67.8736 25.1582 68.3474 25.1582C68.7594 25.1582 68.9653 25.5128 69.1919 25.5128C69.3567 25.5128 69.4391 25.4085 69.4391 25.1999H70.1189C70.1189 25.9092 69.8717 26.2847 69.3979 26.2847Z" fill="black"/>
<path d="M74.527 25.5965L73.6206 26.3892H72.7349L73.497 25.2002L74.527 25.5965ZM73.8678 26.869V31.959H72.7349V26.869H73.8678Z" fill="black"/>
<path d="M78.8527 30.9787H76.525L76.1336 31.9591H74.9595L77.143 26.8691H78.3171L80.4595 31.9591H79.2441L78.8527 30.9787ZM78.4819 30.0399L77.6992 28.0582L76.8958 30.0399H78.4819Z" fill="black"/>
<path d="M88.9874 29.4141C88.9874 30.9161 87.8957 31.9591 86.3096 31.9591H84.2085V26.8691H86.3508C87.9163 26.8691 88.9874 27.9122 88.9874 29.4141ZM87.8339 29.4141C87.8339 28.4754 87.1953 27.8287 86.3302 27.8287H85.362V30.9787H86.392C87.2159 30.9995 87.8339 30.3528 87.8339 29.4141Z" fill="black"/>
<path d="M94.1166 26.8691V27.8287H91.4181V28.9343H93.8488V29.8939H91.4181V31.0204H94.199V31.98H90.2852V26.89H94.1166V26.8691Z" fill="black"/>
<path d="M102.15 26.8691V27.8287H99.4518V28.9343H101.882V29.8939H99.4518V31.0204H102.233V31.98H98.3188V26.89H102.15V26.8691Z" fill="black"/>
<path d="M105.384 27.7867C105.013 27.7867 104.746 27.9328 104.746 28.2039C104.746 29.1427 107.423 28.6211 107.423 30.4569C107.423 31.4582 106.558 32.0005 105.446 32.0005C104.622 32.0005 103.798 31.6876 103.221 31.187L103.674 30.2483C104.189 30.7072 104.931 31.0201 105.466 31.0201C105.94 31.0201 106.208 30.8532 106.208 30.5403C106.208 29.5807 103.53 30.144 103.53 28.3291C103.53 27.4112 104.313 26.8271 105.487 26.8271C106.187 26.8271 106.888 27.0358 107.403 27.3904L106.97 28.35C106.435 27.9953 105.796 27.7867 105.384 27.7867Z" fill="black"/>
<path d="M112.388 26.8691V27.8496H110.843V31.9591H109.71V27.8496H108.186V26.8691H112.388Z" fill="black"/>
<path d="M116.631 31.9591L115.828 30.4989H115.725H114.674V31.9591H113.542V26.8691H115.725C117.043 26.8691 117.785 27.5158 117.785 28.6423C117.785 29.435 117.455 29.9982 116.837 30.2903L117.908 31.98H116.631V31.9591ZM114.674 29.5393H115.725C116.343 29.5393 116.714 29.2472 116.714 28.6631C116.714 28.0999 116.364 27.8079 115.725 27.8079H114.674V29.5393Z" fill="black"/>
<path d="M122.605 30.9787H120.277L119.886 31.9591H118.712L120.895 26.8691H122.07L124.212 31.9591H122.997L122.605 30.9787ZM122.234 30.0399L121.452 28.0582L120.648 30.0399H122.234Z" fill="black"/>
<path d="M128.723 26.8691V27.8496H127.178V31.9591H126.066V27.8496H124.542V26.8691H128.723Z" fill="black"/>
<path d="M133.708 26.8691V27.8287H131.009V28.9343H133.44V29.8939H131.009V31.0204H133.79V31.98H129.876V26.89H133.708V26.8691Z" fill="black"/>
<path d="M138.569 29.393H139.558V31.3539C139.022 31.7502 138.219 32.0214 137.519 32.0214C135.994 32.0214 134.841 30.8949 134.841 29.4138C134.841 27.9536 136.015 26.8271 137.581 26.8271C138.322 26.8271 139.084 27.1192 139.599 27.5781L138.961 28.3917C138.59 28.0371 138.075 27.8284 137.581 27.8284C136.695 27.8284 135.994 28.5168 135.994 29.4138C135.994 30.3109 136.695 30.9992 137.581 30.9992C137.889 30.9992 138.24 30.8949 138.569 30.7281V29.393Z" fill="black"/>
<path d="M142.215 26.8691V31.9591H141.083V26.8691H142.215Z" fill="black"/>
<path d="M147.2 30.9787H144.873L144.481 31.9591H143.307L145.491 26.8691H146.665L148.807 31.9591H147.592L147.2 30.9787ZM146.83 30.0399L146.047 28.0582L145.243 30.0399H146.83Z" fill="black"/>
<path d="M27.5204 13.5805C27.5204 15.7083 25.8313 17.4188 23.7302 17.4188C21.6291 17.4188 19.9399 15.7083 19.9399 13.5805C19.9399 11.4527 21.6291 9.74219 23.7302 9.74219C25.8313 9.74219 27.5204 11.4527 27.5204 13.5805Z" fill="black"/>
<path d="M12.071 24.4485C5.41754 24.4485 0 18.9622 0 12.2243C0 5.48631 5.41754 0 12.071 0C18.7245 0 24.142 5.48631 24.142 12.2243C24.142 18.9622 18.7245 24.4485 12.071 24.4485ZM12.071 0.792699C5.85012 0.792699 0.782762 5.92438 0.782762 12.2243C0.782762 18.5241 5.85012 23.6349 12.0504 23.6349C18.2713 23.6349 23.3181 18.5033 23.3181 12.2243C23.3387 5.92438 18.2919 0.792699 12.071 0.792699Z" fill="black"/>
</g>
<defs>
<clipPath id="clip0">
<rect width="152" height="32" fill="white"/>
</clipPath>
</defs>
</svg>
