<svg width="16" height="16" viewBox="0 0 16 16" fill="none" xmlns="http://www.w3.org/2000/svg">
<g clip-path="url(#clip0)">
<path d="M15.9999 9.31517V14.8823C15.9999 15.0476 15.8888 15.1579 15.7222 15.1579H12.7777C12.6111 15.1579 12.4999 15.0476 12.4999 14.8823V9.64589C12.4999 8.2679 11.9999 7.33087 10.7777 7.33087C9.83328 7.33087 9.27772 7.93718 8.99995 8.59862C8.88884 8.8191 8.88883 9.0947 8.88883 9.42541V14.8823C8.88883 15.0476 8.77772 15.1579 8.61106 15.1579H5.66661C5.49995 15.1579 5.38883 15.0476 5.38883 14.8823C5.38883 13.5043 5.44439 6.77967 5.38883 5.1812C5.5555 5.07096 5.66661 4.96072 5.77772 4.96072H8.66661C8.83328 4.96072 8.94439 5.07096 8.94439 5.23632V6.44895C8.94439 6.44895 8.94439 6.44895 8.94439 6.50407V6.44895C9.38884 5.7324 10.2222 4.74025 12.0555 4.74025C14.2777 4.68513 15.9999 6.17335 15.9999 9.31517ZM0.499946 15.1579H3.44439C3.61106 15.1579 3.72217 15.0476 3.72217 14.8823V5.1812C3.66661 5.07096 3.5555 4.96072 3.38883 4.96072H0.499946C0.333279 4.96072 0.222168 5.07096 0.222168 5.1812V14.8823C0.222168 15.0476 0.333279 15.1579 0.499946 15.1579Z" fill="#F7942C"/>
<path d="M1.83333 3.63789C2.84586 3.63789 3.66667 2.82352 3.66667 1.81895C3.66667 0.81437 2.84586 0 1.83333 0C0.820811 0 0 0.81437 0 1.81895C0 2.82352 0.820811 3.63789 1.83333 3.63789Z" fill="#F7942C"/>
</g>
<defs>
<clipPath id="clip0">
<rect width="16" height="15.1579" fill="white"/>
</clipPath>
</defs>
</svg>
