<svg width="152" height="32" viewBox="0 0 152 32" fill="none" xmlns="http://www.w3.org/2000/svg">
<g clip-path="url(#clip0)">
<path d="M48.5517 21.9661H45.0704V10.4094L42.5985 18.1278H40.724L38.2727 10.5137V21.9661H34.7915V2.25293H38.2727L41.651 12.6415L45.0704 2.25293H48.5517V21.9661Z" fill="black"/>
<path d="M56.4409 16.5426V7.65599C56.4409 5.77854 56.9559 4.38089 57.9858 3.42131C59.0158 2.46172 60.3753 1.98193 62.085 1.98193C63.7124 1.98193 65.0307 2.46172 66.0195 3.42131C67.0082 4.38089 67.5026 5.7994 67.5026 7.65599V16.5426C67.5026 18.3783 66.9876 19.7759 65.9371 20.7355C64.8865 21.716 63.5476 22.1958 61.8791 22.1958C60.2105 22.1958 58.8716 21.716 57.9034 20.7564C56.9353 19.7968 56.4409 18.3783 56.4409 16.5426ZM64.0419 16.1462V8.21922C64.0419 7.21792 63.8772 6.44608 63.527 5.92457C63.1974 5.40305 62.6824 5.13187 62.0026 5.13187C61.2611 5.13187 60.7461 5.38219 60.4165 5.90371C60.0869 6.42522 59.9221 7.19706 59.9221 8.21922V16.1462C59.9221 18.0654 60.6225 19.025 62.0026 19.025C62.6618 19.025 63.1562 18.7746 63.5064 18.274C63.8566 17.7525 64.0419 17.0432 64.0419 16.1462Z" fill="black"/>
<path d="M78.9556 2.25293H75.5156V21.9661H78.9556V2.25293Z" fill="black"/>
<path d="M86.9893 16.5426V7.65599C86.9893 5.77854 87.5042 4.38089 88.5342 3.42131C89.5641 2.46172 90.9237 1.98193 92.6334 1.98193C94.2607 1.98193 95.5584 2.44086 96.5472 3.37959C97.536 4.31831 98.0509 5.6951 98.0509 7.53083V8.13578H94.5697V7.50996C94.5697 6.73813 94.3843 6.15403 94.0135 5.75768C93.6427 5.34047 93.1484 5.15273 92.551 5.15273C91.8094 5.15273 91.2945 5.40305 90.9649 5.92457C90.6353 6.44608 90.4705 7.21792 90.4705 8.24008V16.1671C90.4705 18.0862 91.1709 19.0458 92.551 19.0458C93.2308 19.0458 93.7457 18.8164 94.0753 18.3366C94.4049 17.8776 94.5903 17.1892 94.5903 16.3131V14.227H92.5304V11.4526H98.0509V16.5426C98.0509 18.3783 97.5359 19.7759 96.4854 20.7355C95.4349 21.716 94.0959 22.1958 92.4274 22.1958C90.7589 22.1958 89.4199 21.716 88.4518 20.7564C87.463 19.7968 86.9893 18.3783 86.9893 16.5426Z" fill="black"/>
<path d="M106.641 19.6297C106.188 18.8162 105.94 17.8774 105.94 16.7927V2.25293H109.422V16.7093C109.422 17.502 109.566 18.086 109.875 18.4615C110.184 18.837 110.637 19.0248 111.255 19.0248C112.47 19.0248 113.088 18.2529 113.088 16.7093V2.25293H116.57V16.7927C116.57 17.8566 116.343 18.7953 115.89 19.6297C115.437 20.4433 114.798 21.09 113.995 21.528C113.191 21.9661 112.264 22.1956 111.255 22.1956C110.246 22.1956 109.339 21.9661 108.536 21.528C107.733 21.0691 107.094 20.4433 106.641 19.6297Z" fill="black"/>
<path d="M128.023 10.3677H132.534V13.4967H128.023V18.8162H133.275V21.9661H124.583V2.25293H133.275V5.42372H128.023V10.3677Z" fill="black"/>
<path d="M144.275 14.0391V21.9661H140.794V2.25293H146.108C148.024 2.25293 149.384 2.71186 150.187 3.65058C150.99 4.58931 151.382 6.0704 151.382 8.13559C151.382 9.4498 151.196 10.5554 150.846 11.4315C150.496 12.3077 149.899 12.9544 149.095 13.4133L152 21.987H148.395L145.944 14.06H144.275V14.0391ZM146.088 10.91C146.788 10.91 147.262 10.6806 147.53 10.2008C147.798 9.74185 147.921 9.05345 147.921 8.13559C147.921 7.21773 147.798 6.52933 147.55 6.0704C147.303 5.61147 146.809 5.382 146.088 5.382H144.275V10.8892H146.088V10.91Z" fill="black"/>
<path d="M38.9525 27.828C38.0873 27.828 37.4281 28.4955 37.4281 29.3925C37.4281 30.2895 38.0873 30.957 38.9525 30.957C39.4056 30.957 39.9 30.7276 40.2502 30.3521L40.9094 31.0822C40.3738 31.6454 39.6116 32.0001 38.8701 32.0001C37.3663 32.0001 36.2334 30.8736 36.2334 29.3925C36.2334 27.9323 37.3869 26.8267 38.9113 26.8267C39.6322 26.8267 40.3944 27.1604 40.8888 27.6611L40.2296 28.4746C39.9206 28.0783 39.4056 27.828 38.9525 27.828Z" fill="black"/>
<path d="M47.0683 29.4134C47.0683 30.8736 45.8942 32.0209 44.3699 32.0209C42.8249 32.0209 41.6714 30.8945 41.6714 29.4134C41.6714 27.9323 42.8455 26.8267 44.3699 26.8267C45.9148 26.8267 47.0683 27.9323 47.0683 29.4134ZM42.8455 29.4134C42.8455 30.3104 43.5665 30.9988 44.3905 30.9988C45.2144 30.9988 45.9148 30.3104 45.9148 29.4134C45.9148 28.5164 45.235 27.828 44.3905 27.828C43.5459 27.828 42.8455 28.5164 42.8455 29.4134Z" fill="black"/>
<path d="M49.6229 26.8682L51.0855 29.9764L52.548 26.8682H53.8045V31.9581H52.7746V28.5161L51.4357 31.4366H50.6941L49.3551 28.5161V31.9581H48.3252V26.8682H49.6229Z" fill="black"/>
<path d="M59.6131 28.6414C59.6131 29.8305 58.8715 30.5189 57.5944 30.5189H56.6056V31.9791H55.4727V26.8892H57.615C58.8921 26.8683 59.6131 27.515 59.6131 28.6414ZM58.5419 28.6623C58.5419 28.0991 58.1917 27.807 57.5532 27.807H56.6056V29.5384H57.5532C58.1711 29.5384 58.5419 29.2464 58.5419 28.6623Z" fill="black"/>
<path d="M63.8771 30.9777H61.5494L61.158 31.9581H59.9839L62.1674 26.8682H63.3415L65.4838 31.9581H64.2685L63.8771 30.9777ZM63.5063 30.039L62.7236 28.0572L61.9202 30.039H63.5063Z" fill="black"/>
<path d="M67.5852 26.8683L70.0365 30.1434V26.8683H71.1077V31.9583H70.0777L67.647 28.6831V31.9583H66.5347V26.8683H67.5852ZM69.3979 26.2842C68.9653 26.2842 68.78 25.9296 68.5534 25.9296C68.3886 25.9296 68.3062 26.0339 68.3062 26.2633H67.6264C67.6264 25.5332 67.8736 25.1577 68.3474 25.1577C68.7594 25.1577 68.9653 25.5123 69.1919 25.5123C69.3567 25.5123 69.4391 25.408 69.4391 25.1994H70.1189C70.1189 25.9087 69.8717 26.2842 69.3979 26.2842Z" fill="black"/>
<path d="M74.527 25.5956L73.6206 26.3883H72.7349L73.497 25.1992L74.527 25.5956ZM73.8678 26.8681V31.958H72.7349V26.8681H73.8678Z" fill="black"/>
<path d="M78.8527 30.9777H76.525L76.1336 31.9581H74.9595L77.143 26.8682H78.3171L80.4595 31.9581H79.2441L78.8527 30.9777ZM78.4819 30.039L77.6992 28.0572L76.8958 30.039H78.4819Z" fill="black"/>
<path d="M88.9874 29.4131C88.9874 30.9151 87.8957 31.9581 86.3096 31.9581H84.2085V26.8682H86.3508C87.9163 26.8682 88.9874 27.9112 88.9874 29.4131ZM87.8339 29.4131C87.8339 28.4744 87.1953 27.8277 86.3302 27.8277H85.362V30.9777H86.392C87.2159 30.9985 87.8339 30.3519 87.8339 29.4131Z" fill="black"/>
<path d="M94.1166 26.8682V27.8277H91.4181V28.9334H93.8488V29.8929H91.4181V31.0194H94.199V31.979H90.2852V26.889H94.1166V26.8682Z" fill="black"/>
<path d="M102.15 26.8682V27.8277H99.4518V28.9334H101.882V29.8929H99.4518V31.0194H102.233V31.979H98.3188V26.889H102.15V26.8682Z" fill="black"/>
<path d="M105.384 27.7862C105.013 27.7862 104.746 27.9323 104.746 28.2035C104.746 29.1422 107.423 28.6207 107.423 30.4564C107.423 31.4577 106.558 32.0001 105.446 32.0001C104.622 32.0001 103.798 31.6872 103.221 31.1865L103.674 30.2478C104.189 30.7067 104.931 31.0196 105.466 31.0196C105.94 31.0196 106.208 30.8527 106.208 30.5398C106.208 29.5802 103.53 30.1435 103.53 28.3286C103.53 27.4108 104.313 26.8267 105.487 26.8267C106.187 26.8267 106.888 27.0353 107.403 27.3899L106.97 28.3495C106.435 27.9948 105.796 27.7862 105.384 27.7862Z" fill="black"/>
<path d="M112.388 26.8682V27.8486H110.843V31.9581H109.71V27.8486H108.186V26.8682H112.388Z" fill="black"/>
<path d="M116.631 31.9581L115.828 30.4979H115.725H114.674V31.9581H113.542V26.8682H115.725C117.043 26.8682 117.785 27.5148 117.785 28.6413C117.785 29.434 117.455 29.9972 116.837 30.2893L117.908 31.979H116.631V31.9581ZM114.674 29.5383H115.725C116.343 29.5383 116.714 29.2463 116.714 28.6622C116.714 28.0989 116.364 27.8069 115.725 27.8069H114.674V29.5383Z" fill="black"/>
<path d="M122.605 30.9777H120.277L119.886 31.9581H118.712L120.895 26.8682H122.07L124.212 31.9581H122.997L122.605 30.9777ZM122.234 30.039L121.452 28.0572L120.648 30.039H122.234Z" fill="black"/>
<path d="M128.723 26.8682V27.8486H127.178V31.9581H126.066V27.8486H124.542V26.8682H128.723Z" fill="black"/>
<path d="M133.708 26.8682V27.8277H131.009V28.9334H133.44V29.8929H131.009V31.0194H133.79V31.979H129.876V26.889H133.708V26.8682Z" fill="black"/>
<path d="M138.569 29.3925H139.558V31.3534C139.022 31.7497 138.219 32.0209 137.519 32.0209C135.994 32.0209 134.841 30.8945 134.841 29.4134C134.841 27.9531 136.015 26.8267 137.581 26.8267C138.322 26.8267 139.084 27.1187 139.599 27.5776L138.961 28.3912C138.59 28.0366 138.075 27.828 137.581 27.828C136.695 27.828 135.994 28.5164 135.994 29.4134C135.994 30.3104 136.695 30.9988 137.581 30.9988C137.889 30.9988 138.24 30.8945 138.569 30.7276V29.3925Z" fill="black"/>
<path d="M142.215 26.8682V31.9581H141.083V26.8682H142.215Z" fill="black"/>
<path d="M147.2 30.9777H144.873L144.481 31.9581H143.307L145.491 26.8682H146.665L148.807 31.9581H147.592L147.2 30.9777ZM146.83 30.039L146.047 28.0572L145.243 30.039H146.83Z" fill="black"/>
<path d="M27.5204 13.58C27.5204 15.7078 25.8313 17.4184 23.7302 17.4184C21.6291 17.4184 19.9399 15.7078 19.9399 13.58C19.9399 11.4523 21.6291 9.7417 23.7302 9.7417C25.8313 9.7417 27.5204 11.4523 27.5204 13.58Z" fill="black"/>
<path d="M12.071 24.4485C5.41754 24.4485 0 18.9622 0 12.2243C0 5.48631 5.41754 0 12.071 0C18.7245 0 24.142 5.48631 24.142 12.2243C24.142 18.9622 18.7245 24.4485 12.071 24.4485ZM12.071 0.792699C5.85012 0.792699 0.782762 5.92438 0.782762 12.2243C0.782762 18.5241 5.85012 23.6349 12.0504 23.6349C18.2713 23.6349 23.3181 18.5033 23.3181 12.2243C23.3387 5.92438 18.2919 0.792699 12.071 0.792699Z" fill="black"/>
</g>
<defs>
<clipPath id="clip0">
<rect width="152" height="32" fill="white"/>
</clipPath>
</defs>
</svg>
