<svg width="80" height="80" viewBox="0 0 80 80" fill="none" xmlns="http://www.w3.org/2000/svg">
<circle cx="40" cy="40" r="40" transform="rotate(90 40 40)" fill="#7CBEE8"/>
<path d="M30.3381 29.9L32.6881 35.87L35.0281 29.9H35.9781L33.0781 37H32.2981L29.3881 29.9H30.3381ZM42.755 36.2V37H37.935V29.9H42.665V30.7H38.835V33H42.165V33.75H38.835V36.2H42.755ZM44.9896 37V29.9H48.0296C48.343 29.9 48.6296 29.9667 48.8896 30.1C49.1563 30.2267 49.383 30.4 49.5696 30.62C49.763 30.8333 49.913 31.0767 50.0196 31.35C50.1263 31.6167 50.1796 31.89 50.1796 32.17C50.1796 32.4167 50.143 32.6567 50.0696 32.89C50.003 33.1167 49.903 33.3233 49.7696 33.51C49.643 33.6967 49.4863 33.8567 49.2996 33.99C49.1196 34.1233 48.9163 34.22 48.6896 34.28L50.4096 37H49.3896L47.7696 34.45H45.8896V37H44.9896ZM45.8896 33.65H48.0396C48.2263 33.65 48.393 33.61 48.5396 33.53C48.693 33.45 48.823 33.3433 48.9296 33.21C49.0363 33.07 49.1196 32.91 49.1796 32.73C49.2396 32.55 49.2696 32.3633 49.2696 32.17C49.2696 31.97 49.233 31.7833 49.1596 31.61C49.093 31.43 48.9996 31.2733 48.8796 31.14C48.7663 31 48.6296 30.8933 48.4696 30.82C48.3163 30.74 48.153 30.7 47.9796 30.7H45.8896V33.65ZM25.4086 45.4C25.4086 44.9733 25.4819 44.55 25.6286 44.13C25.7819 43.7033 26.0019 43.3233 26.2886 42.99C26.5819 42.65 26.9386 42.3767 27.3586 42.17C27.7786 41.9633 28.2552 41.86 28.7886 41.86C29.4219 41.86 29.9652 42.0033 30.4186 42.29C30.8719 42.5767 31.2086 42.95 31.4286 43.41L30.7186 43.87C30.6119 43.6433 30.4819 43.4533 30.3286 43.3C30.1819 43.1467 30.0186 43.0233 29.8386 42.93C29.6652 42.8367 29.4852 42.77 29.2986 42.73C29.1119 42.69 28.9286 42.67 28.7486 42.67C28.3552 42.67 28.0052 42.7533 27.6986 42.92C27.3986 43.08 27.1452 43.2933 26.9386 43.56C26.7319 43.82 26.5752 44.1167 26.4686 44.45C26.3686 44.7767 26.3186 45.1067 26.3186 45.44C26.3186 45.8133 26.3786 46.17 26.4986 46.51C26.6252 46.8433 26.7986 47.14 27.0186 47.4C27.2386 47.66 27.4986 47.8667 27.7986 48.02C28.0986 48.1733 28.4252 48.25 28.7786 48.25C28.9652 48.25 29.1552 48.2267 29.3486 48.18C29.5486 48.1333 29.7386 48.06 29.9186 47.96C30.0986 47.8533 30.2652 47.7233 30.4186 47.57C30.5786 47.41 30.7086 47.22 30.8086 47L31.5586 47.41C31.4452 47.6767 31.2852 47.9133 31.0786 48.12C30.8786 48.32 30.6486 48.49 30.3886 48.63C30.1352 48.77 29.8652 48.8767 29.5786 48.95C29.2919 49.0233 29.0119 49.06 28.7386 49.06C28.2519 49.06 27.8052 48.9533 27.3986 48.74C26.9919 48.5267 26.6386 48.25 26.3386 47.91C26.0452 47.5633 25.8152 47.1733 25.6486 46.74C25.4886 46.3 25.4086 45.8533 25.4086 45.4ZM35.7473 41.9H36.5073L39.4073 49H38.4473L37.6073 46.92H34.6273L33.7973 49H32.8373L35.7473 41.9ZM37.4073 46.22L36.1273 42.94L34.8073 46.22H37.4073ZM45.4272 43.39C45.3472 43.2967 45.2406 43.2067 45.1072 43.12C44.9739 43.0333 44.8239 42.9567 44.6572 42.89C44.4906 42.8167 44.3072 42.76 44.1072 42.72C43.9139 42.6733 43.7106 42.65 43.4972 42.65C42.9439 42.65 42.5372 42.7533 42.2772 42.96C42.0239 43.1667 41.8972 43.45 41.8972 43.81C41.8972 44.0033 41.9339 44.1633 42.0072 44.29C42.0806 44.4167 42.1939 44.5267 42.3472 44.62C42.5072 44.7067 42.7039 44.7833 42.9372 44.85C43.1706 44.9167 43.4472 44.9867 43.7672 45.06C44.1339 45.14 44.4639 45.2333 44.7572 45.34C45.0572 45.44 45.3106 45.5667 45.5172 45.72C45.7306 45.8733 45.8906 46.06 45.9972 46.28C46.1106 46.5 46.1672 46.77 46.1672 47.09C46.1672 47.43 46.1006 47.7267 45.9672 47.98C45.8339 48.2267 45.6506 48.4333 45.4172 48.6C45.1906 48.76 44.9206 48.88 44.6072 48.96C44.2939 49.0333 43.9539 49.07 43.5872 49.07C43.0406 49.07 42.5206 48.9867 42.0272 48.82C41.5406 48.6467 41.0972 48.3967 40.6972 48.07L41.1272 47.31C41.2339 47.4233 41.3706 47.5367 41.5372 47.65C41.7106 47.7633 41.9039 47.8667 42.1172 47.96C42.3372 48.0467 42.5706 48.12 42.8172 48.18C43.0706 48.2333 43.3339 48.26 43.6072 48.26C44.1139 48.26 44.5072 48.17 44.7872 47.99C45.0672 47.81 45.2072 47.54 45.2072 47.18C45.2072 46.98 45.1606 46.8133 45.0672 46.68C44.9806 46.54 44.8506 46.42 44.6772 46.32C44.5039 46.22 44.2872 46.1333 44.0272 46.06C43.7739 45.98 43.4839 45.9 43.1572 45.82C42.7972 45.7333 42.4806 45.64 42.2072 45.54C41.9339 45.44 41.7039 45.32 41.5172 45.18C41.3372 45.04 41.2006 44.87 41.1072 44.67C41.0139 44.47 40.9672 44.23 40.9672 43.95C40.9672 43.61 41.0306 43.31 41.1572 43.05C41.2839 42.79 41.4606 42.57 41.6872 42.39C41.9139 42.21 42.1839 42.0767 42.4972 41.99C42.8106 41.8967 43.1506 41.85 43.5172 41.85C43.9972 41.85 44.4306 41.9233 44.8172 42.07C45.2039 42.2167 45.5472 42.4133 45.8472 42.66L45.4272 43.39ZM51.231 49.05C50.731 49.05 50.2743 48.95 49.861 48.75C49.4543 48.5433 49.1043 48.2733 48.811 47.94C48.5176 47.6 48.291 47.2133 48.131 46.78C47.971 46.3467 47.891 45.9033 47.891 45.45C47.891 44.9767 47.9743 44.5233 48.141 44.09C48.3143 43.6567 48.551 43.2733 48.851 42.94C49.151 42.6067 49.5043 42.3433 49.911 42.15C50.3243 41.95 50.771 41.85 51.251 41.85C51.751 41.85 52.2043 41.9567 52.611 42.17C53.0176 42.3767 53.3676 42.65 53.661 42.99C53.9543 43.33 54.181 43.7167 54.341 44.15C54.501 44.5767 54.581 45.0133 54.581 45.46C54.581 45.9333 54.4943 46.3867 54.321 46.82C54.1543 47.2533 53.921 47.6367 53.621 47.97C53.3276 48.2967 52.9743 48.56 52.561 48.76C52.1543 48.9533 51.711 49.05 51.231 49.05ZM48.801 45.45C48.801 45.81 48.8576 46.16 48.971 46.5C49.091 46.8333 49.2576 47.13 49.471 47.39C49.6843 47.65 49.941 47.8567 50.241 48.01C50.541 48.1633 50.8743 48.24 51.241 48.24C51.621 48.24 51.961 48.16 52.261 48C52.561 47.8333 52.8143 47.62 53.021 47.36C53.2343 47.0933 53.3943 46.7933 53.501 46.46C53.6143 46.1267 53.671 45.79 53.671 45.45C53.671 45.09 53.611 44.7433 53.491 44.41C53.3776 44.07 53.211 43.7733 52.991 43.52C52.7776 43.26 52.521 43.0533 52.221 42.9C51.9276 42.7467 51.601 42.67 51.241 42.67C50.861 42.67 50.521 42.75 50.221 42.91C49.921 43.07 49.6643 43.28 49.451 43.54C49.2443 43.8 49.0843 44.0967 48.971 44.43C48.8576 44.7633 48.801 45.1033 48.801 45.45Z" fill="#F1EBE5"/>
</svg>
