<svg width="15" height="14" viewBox="0 0 15 14" fill="none" xmlns="http://www.w3.org/2000/svg">
<g clip-path="url(#clip0)">
<path d="M11.302 4.87832V4.87847L11.3142 4.87817C12.2403 4.85554 13.0192 5.14782 13.5695 5.72789C14.1227 6.31102 14.4999 7.24355 14.4999 8.60377V13.5001H12.2187V8.90923C12.2187 8.22514 12.095 7.57259 11.7519 7.0779C11.3878 6.55298 10.8221 6.27104 10.1041 6.27104C8.9621 6.27104 8.2968 7.00764 7.98367 7.73145C7.83171 8.04149 7.83256 8.39865 7.83318 8.65839C7.83322 8.67451 7.83325 8.69025 7.83325 8.70559V13.5001H5.55243C5.55344 13.1583 5.55608 12.6496 5.55922 12.0446C5.57046 9.87934 5.58811 6.48037 5.55998 5.08195H7.88534V5.81221V5.9565V5.9565V5.95651V5.95651V5.95651V5.95652V5.95652V5.95653V5.95653V5.95654V5.95654V5.95655V5.95655V5.95656V5.95657V5.95657V5.95658V5.95658V5.95658V5.95659V5.95659V5.9566V5.9566V5.95661V5.95661V5.95662V5.95662V5.95663V5.95663V5.95664V5.95665V5.95665V5.95666V5.95666V5.95667V5.95668V5.95668V5.95669V5.9567V5.95671V5.95671V5.95672V5.95673V5.95674V5.95675V5.95676V5.95677V5.95677V5.95678V5.95679V5.9568V5.95681V5.95682V5.95683V5.95684V5.95685V5.95687V5.95688V5.95689V5.9569V5.95691V5.95692V5.95694V5.95695V5.95696V5.95698V5.95699V5.957V5.95702V5.95703V5.95705V5.95706V5.95707V5.95709V5.95711V5.95712V5.95714V5.95715V5.95717V5.95719V5.9572V5.95722V5.95724V5.95726V5.95727V5.95729V5.95731V5.95733V5.95735V5.95737V5.95739V5.95741V5.95743V5.95745V5.95747V5.95749V5.95752V5.95754V5.95756V5.95758V5.95761V5.95763V5.95765V5.95768V5.9577V5.95773V5.95775V5.95778V5.9578V5.95783V5.95786V5.95788V5.95791V5.95794V5.95797V5.95799V5.95802V5.95805V5.95808V5.95811V5.95814V5.95817V5.9582V5.95823V5.95826V5.9583V5.95833V5.95836V5.95839V5.95843V5.95846V5.9585V5.95853V5.95857V5.9586V5.95864V5.95867V5.95871V5.95875V5.95878V5.95882V5.95886V5.9589V5.95894V5.95898V5.95902V5.95906V5.9591V5.95914V5.95918V5.95922V5.95927V5.95931V5.95935V5.9594V5.95944V5.95949V5.95953V5.95958V5.95962V5.95967V5.95972V5.95977V5.95981V5.95986V5.95991V5.95996V5.96001V5.96006V5.96011V5.96016V5.96022V5.96027V5.96032V5.96037V5.96043V5.96048V5.96054V5.96059V5.96065V5.9607V5.96076V5.96082V5.96088V5.96093V5.96099V5.96105V5.96111V5.96117V5.96123V5.9613V5.96136V5.96142V5.96148V5.96155V5.96161V5.96168V5.96174V5.96181V5.96187V5.96194V5.96201V5.96208V5.96214V5.96221V5.96228V5.96235V5.96242V5.9625V5.96257V5.96264V5.96271V5.96279V5.96286V5.96294V5.96301V5.96309V5.96316V5.96324V5.96332V5.9634V5.96348V5.96356V5.96364V5.96372V5.9638V5.96388V5.96396V5.96405V5.96413V5.96422V5.9643V5.96439V5.96447V5.96456V5.96465V5.96474V5.96482V5.96491V5.965V5.96509V5.96519V5.96528V5.96537V5.96546V5.96556V5.96565V5.96575V5.96584V5.96594V5.96604V5.96614V5.96624V5.96633V5.96643V5.96654V5.96664V5.96674V5.96684V5.96695V5.96705V5.96715V5.96726V5.96737V5.96747V5.96758V5.96769V5.9678V5.96791V5.96802V5.96813V5.96824V5.96835V5.96847V5.96858V5.9687V5.96881V5.96893V5.96904V5.96916V5.96928V5.9694V5.96952V5.96964V5.96976V5.96988V5.97001V5.97013V5.97025V5.97038V5.9705V5.97063V5.97076V5.97089V5.97101V5.97114V5.97127V5.97141V5.97154V5.97167V5.9718V5.97194V5.97207V5.97221V5.97235V5.97248V5.97262V5.97276V5.9729V5.97304V5.97318V5.97332V5.97347V5.97361V5.97376V5.9739V5.97405V5.97419V5.97434V5.97449V5.97464V5.97479V5.97494V5.97509V5.97525V5.9754V5.97556V5.97571V5.97587V5.97602V5.97618V5.97634V5.9765V5.97666V5.97682V5.97698V5.97715V5.97731V5.97748V5.97764V5.97781V5.97798V5.97814V5.97831V5.97848V5.97865V5.97883V5.979V5.97917V5.97935V5.97952V5.9797V5.97987V5.98005V5.98023V5.98041V5.98059V5.98077V5.98096V5.98114V5.98132V5.98151V5.9817V5.98188V5.98207V5.98226V5.98245V5.98264V5.98283V5.98302V5.98322V5.98341V5.98361V5.9838V5.984V5.9842V5.9844V5.9846V5.9848V5.985V5.98521V5.98541V5.98562V5.98582V5.98603V5.98624V5.98645V5.98666V5.98687V5.98708V5.98729V5.9875V5.98772V5.98794V5.98815V5.98837V5.98859V5.98881V5.98903V5.98925V5.98947V5.9897V5.98992V5.99015V5.99038V5.9906V5.99083V5.99106V5.99129V5.99152V5.99176V5.99199V5.99223V5.99246V5.9927V5.99294V5.99318V5.99342V5.99366V5.9939V5.99414V5.99439V5.99463V5.99488V5.99513V5.99538V5.99563V5.99588V5.99613V5.99638V5.99664V5.99689V5.99715V5.99741V5.99766V5.99792V5.99818V5.99845V5.99871V5.99897V5.99924V5.9995V5.99977V6.00004V6.00031V6.00058V6.00085V6.00112V6.0014V6.00167V6.00195V6.00222V6.0025V6.00278V6.00306V6.00334V6.00363V6.00391V6.0042V6.00448V6.00477V6.00506V6.00535V6.00564V6.00593V6.00622V6.00652V6.00681V6.00711V6.00741H8.38534H8.4662L8.80846 6.22289C8.9975 5.92263 9.25272 5.59161 9.63501 5.33373C10.0113 5.07988 10.5382 4.87832 11.302 4.87832ZM2.9895 5.08195V13.5001H0.708252V5.08195H2.9895Z" fill="white" stroke="white"/>
<path d="M2.9375 1.68C2.9375 2.32101 2.40266 2.86 1.71875 2.86C1.03484 2.86 0.5 2.32101 0.5 1.68C0.5 1.03899 1.03484 0.5 1.71875 0.5C2.40266 0.5 2.9375 1.03899 2.9375 1.68Z" fill="white" stroke="white"/>
</g>
<defs>
<clipPath id="clip0">
<rect width="15" height="14" fill="white"/>
</clipPath>
</defs>
</svg>
