<svg width="16" height="15" viewBox="0 0 16 15" fill="none" xmlns="http://www.w3.org/2000/svg">
<g clip-path="url(#clip0)">
<path d="M0.821875 2L15.1781 2C15.6313 2 16 2.38031 16 2.84764L16 12.1556C16 12.6197 15.6312 13.0032 15.1781 13.0032L0.818749 13.0032C0.36875 13.0032 -0.00312517 12.6229 -0.00312512 12.1556L-0.00312431 2.84764C9.20427e-07 2.38031 0.36875 2 0.821875 2ZM1.12813 2.63492L7.52812 7.58541C7.64375 7.67565 7.81875 7.73366 8 7.73044C8.18125 7.73044 8.35625 7.67565 8.47187 7.58541L14.8719 2.63493L1.12813 2.63492ZM4.54687 7.91093L1.05937 12.3522C1.05625 12.3554 1.05312 12.3586 1.04687 12.3651L14.9531 12.3651C14.95 12.3619 14.9437 12.3586 14.9406 12.3522L11.4531 7.91093C11.3469 7.77556 11.3656 7.57574 11.5 7.46294C11.6312 7.35335 11.825 7.37269 11.9312 7.51128L15.3844 11.9106L15.3844 3.03135L8.84062 8.09141C8.59375 8.28157 8.29687 8.36214 8 8.36537C7.70312 8.36537 7.40625 8.28157 7.15937 8.09141L0.615625 3.03135L0.615625 11.9106L4.06875 7.51128C4.175 7.37591 4.36875 7.35335 4.5 7.46293C4.63437 7.57574 4.65312 7.77556 4.54687 7.91093Z" fill="white"/>
</g>
<defs>
<clipPath id="clip0">
<rect width="16" height="15" fill="white" transform="matrix(-1 -7.28523e-08 -1.04907e-07 1 16 0)"/>
</clipPath>
</defs>
</svg>
