<svg width="80" height="80" viewBox="0 0 80 80" fill="none" xmlns="http://www.w3.org/2000/svg">
<circle cx="40" cy="40" r="40" transform="rotate(90 40 40)" fill="#7CBEE8"/>
<path d="M30.3381 29.9L32.6881 35.87L35.0281 29.9H35.9781L33.0781 37H32.2981L29.3881 29.9H30.3381ZM42.755 36.2V37H37.935V29.9H42.665V30.7H38.835V33H42.165V33.75H38.835V36.2H42.755ZM44.9896 37V29.9H48.0296C48.343 29.9 48.6296 29.9667 48.8896 30.1C49.1563 30.2267 49.383 30.4 49.5696 30.62C49.763 30.8333 49.913 31.0767 50.0196 31.35C50.1263 31.6167 50.1796 31.89 50.1796 32.17C50.1796 32.4167 50.143 32.6567 50.0696 32.89C50.003 33.1167 49.903 33.3233 49.7696 33.51C49.643 33.6967 49.4863 33.8567 49.2996 33.99C49.1196 34.1233 48.9163 34.22 48.6896 34.28L50.4096 37H49.3896L47.7696 34.45H45.8896V37H44.9896ZM45.8896 33.65H48.0396C48.2263 33.65 48.393 33.61 48.5396 33.53C48.693 33.45 48.823 33.3433 48.9296 33.21C49.0363 33.07 49.1196 32.91 49.1796 32.73C49.2396 32.55 49.2696 32.3633 49.2696 32.17C49.2696 31.97 49.233 31.7833 49.1596 31.61C49.093 31.43 48.9996 31.2733 48.8796 31.14C48.7663 31 48.6296 30.8933 48.4696 30.82C48.3163 30.74 48.153 30.7 47.9796 30.7H45.8896V33.65ZM26.6563 43.58V49H25.7563V41.9H26.4563L30.8563 47.43V41.91H31.7563V49H30.9963L26.6563 43.58ZM37.3316 49.05C36.8316 49.05 36.3749 48.95 35.9616 48.75C35.5549 48.5433 35.2049 48.2733 34.9116 47.94C34.6182 47.6 34.3916 47.2133 34.2316 46.78C34.0716 46.3467 33.9916 45.9033 33.9916 45.45C33.9916 44.9767 34.0749 44.5233 34.2416 44.09C34.4149 43.6567 34.6516 43.2733 34.9516 42.94C35.2516 42.6067 35.6049 42.3433 36.0116 42.15C36.4249 41.95 36.8716 41.85 37.3516 41.85C37.8516 41.85 38.3049 41.9567 38.7116 42.17C39.1182 42.3767 39.4682 42.65 39.7616 42.99C40.0549 43.33 40.2816 43.7167 40.4416 44.15C40.6016 44.5767 40.6816 45.0133 40.6816 45.46C40.6816 45.9333 40.5949 46.3867 40.4216 46.82C40.2549 47.2533 40.0216 47.6367 39.7216 47.97C39.4282 48.2967 39.0749 48.56 38.6616 48.76C38.2549 48.9533 37.8116 49.05 37.3316 49.05ZM34.9016 45.45C34.9016 45.81 34.9582 46.16 35.0716 46.5C35.1916 46.8333 35.3582 47.13 35.5716 47.39C35.7849 47.65 36.0416 47.8567 36.3416 48.01C36.6416 48.1633 36.9749 48.24 37.3416 48.24C37.7216 48.24 38.0616 48.16 38.3616 48C38.6616 47.8333 38.9149 47.62 39.1216 47.36C39.3349 47.0933 39.4949 46.7933 39.6016 46.46C39.7149 46.1267 39.7716 45.79 39.7716 45.45C39.7716 45.09 39.7116 44.7433 39.5916 44.41C39.4782 44.07 39.3116 43.7733 39.0916 43.52C38.8782 43.26 38.6216 43.0533 38.3216 42.9C38.0282 42.7467 37.7016 42.67 37.3416 42.67C36.9616 42.67 36.6216 42.75 36.3216 42.91C36.0216 43.07 35.7649 43.28 35.5516 43.54C35.3449 43.8 35.1849 44.0967 35.0716 44.43C34.9582 44.7633 34.9016 45.1033 34.9016 45.45ZM47.8274 42.7H45.3774V49H44.4774V42.7H42.0274V41.9H47.8274V42.7ZM51.3362 41.9H52.0962L54.9962 49H54.0362L53.1962 46.92H50.2162L49.3862 49H48.4262L51.3362 41.9ZM52.9962 46.22L51.7162 42.94L50.3962 46.22H52.9962Z" fill="#F1EBE5"/>
</svg>
