<svg width="16" height="16" viewBox="0 0 16 16" fill="none" xmlns="http://www.w3.org/2000/svg">
<path d="M8 0C3.58844 0 0 3.58844 0 8C0 9.47977 0.406936 10.9272 1.17919 12.1803C0.998844 12.8139 0.70289 13.8913 0.337572 15.2185L0.319075 15.2925C0.277457 15.4497 0.323699 15.6162 0.439306 15.7272C0.554913 15.8382 0.721387 15.8798 0.873988 15.8335L3.93064 14.8902C5.16069 15.6162 6.56647 16 8 16C12.4116 16 16 12.4116 16 8C16 3.58844 12.4116 0 8 0ZM2.08092 12.2358C2.11792 12.111 2.0948 11.9815 2.02543 11.8751C1.2763 10.7237 0.878613 9.38266 0.878613 8C0.878613 4.07399 4.06936 0.883237 7.99538 0.883237C11.9214 0.883237 15.1121 4.07399 15.1121 8C15.1121 11.926 11.9214 15.1168 7.99538 15.1168C6.65434 15.1168 5.35029 14.7422 4.22197 14.0347C4.1526 13.9884 4.06936 13.9653 3.98613 13.9653C3.94451 13.9653 3.89827 13.9699 3.85665 13.9838L1.38266 14.7514C1.56301 14.0855 1.88671 12.9156 2.08092 12.2358Z" fill="white"/>
<path d="M9.29459 12.8185C9.63216 12.8694 9.95586 12.8925 10.2518 12.8925C12.0553 12.8925 13.1235 11.9815 13.4194 10.1873C13.4518 10.0023 13.364 9.81737 13.1975 9.72951C12.6426 9.42431 12.1709 9.11448 11.8241 8.88789C11.5559 8.71217 11.3616 8.58731 11.2137 8.51332C10.7466 8.28211 10.3905 8.45783 10.2518 8.59656C10.2333 8.61506 10.2148 8.63818 10.1963 8.66593C9.78939 9.27633 9.34546 9.73876 9.20673 9.82199C9.01251 9.75725 8.25875 9.33182 7.44488 8.65668C6.668 8.00928 6.15008 7.37575 6.03448 6.9457C6.56627 6.38616 6.76974 6.01159 6.76974 5.58153C6.76974 5.12373 5.78939 3.36188 5.5813 3.15379C5.36858 2.94107 4.93852 2.89945 4.27725 3.03356C4.19401 3.05206 4.1154 3.09367 4.05066 3.15379C3.97667 3.22778 2.19633 5.04512 3.04257 7.2509C3.9628 9.61853 6.30731 12.37 9.29459 12.8185ZM5.27147 6.47864C5.18823 6.56188 5.14199 6.67286 5.14199 6.78847C5.14199 8.44396 8.52234 10.7052 9.21135 10.7052C9.51193 10.7052 10.0345 10.4601 10.8345 9.29945C10.9408 9.35494 11.1397 9.48442 11.3478 9.62315C11.6391 9.81275 12.0322 10.0717 12.4946 10.3399C12.2773 11.2925 11.6992 12.2867 9.42407 11.9445C6.38592 11.4867 4.46685 8.46708 3.87494 6.93182C3.32465 5.50292 4.31424 4.19888 4.59633 3.87055C4.7628 3.84281 4.9154 3.83356 5.00789 3.83818C5.25297 4.20812 5.85875 5.38269 5.89575 5.59078C5.89575 5.68327 5.87263 5.87749 5.27147 6.47864Z" fill="white"/>
</svg>
