<svg width="152" height="32" viewBox="0 0 152 32" fill="none" xmlns="http://www.w3.org/2000/svg">
<g clip-path="url(#clip0)">
<path d="M48.5521 21.9661H45.0709V10.4094L42.599 18.1278H40.7245L38.2732 10.5137V21.9661H34.792V2.25293H38.2732L41.6515 12.6415L45.0709 2.25293H48.5521V21.9661Z" fill="black"/>
<path d="M56.4414 16.5426V7.65599C56.4414 5.77854 56.9564 4.38089 57.9863 3.42131C59.0163 2.46172 60.3758 1.98193 62.0855 1.98193C63.7129 1.98193 65.0312 2.46172 66.0199 3.42131C67.0087 4.38089 67.5031 5.7994 67.5031 7.65599V16.5426C67.5031 18.3783 66.9881 19.7759 65.9375 20.7355C64.887 21.716 63.5481 22.1958 61.8795 22.1958C60.211 22.1958 58.8721 21.716 57.9039 20.7564C56.9358 19.7968 56.4414 18.3783 56.4414 16.5426ZM64.0424 16.1462V8.21922C64.0424 7.21792 63.8776 6.44608 63.5275 5.92457C63.1979 5.40305 62.6829 5.13187 62.0031 5.13187C61.2616 5.13187 60.7466 5.38219 60.417 5.90371C60.0874 6.42522 59.9226 7.19706 59.9226 8.21922V16.1462C59.9226 18.0654 60.623 19.025 62.0031 19.025C62.6623 19.025 63.1567 18.7746 63.5069 18.274C63.857 17.7525 64.0424 17.0432 64.0424 16.1462Z" fill="black"/>
<path d="M78.9556 2.25293H75.5156V21.9661H78.9556V2.25293Z" fill="black"/>
<path d="M86.9893 16.5426V7.65599C86.9893 5.77854 87.5042 4.38089 88.5342 3.42131C89.5641 2.46172 90.9237 1.98193 92.6334 1.98193C94.2607 1.98193 95.5584 2.44086 96.5472 3.37959C97.536 4.31831 98.0509 5.6951 98.0509 7.53083V8.13578H94.5697V7.50996C94.5697 6.73813 94.3843 6.15403 94.0135 5.75768C93.6427 5.34047 93.1484 5.15273 92.551 5.15273C91.8094 5.15273 91.2945 5.40305 90.9649 5.92457C90.6353 6.44608 90.4705 7.21792 90.4705 8.24008V16.1671C90.4705 18.0862 91.1709 19.0458 92.551 19.0458C93.2308 19.0458 93.7457 18.8164 94.0753 18.3366C94.4049 17.8776 94.5903 17.1892 94.5903 16.3131V14.227H92.5304V11.4526H98.0509V16.5426C98.0509 18.3783 97.5359 19.7759 96.4854 20.7355C95.4349 21.716 94.0959 22.1958 92.4274 22.1958C90.7589 22.1958 89.4199 21.716 88.4518 20.7564C87.463 19.7968 86.9893 18.3783 86.9893 16.5426Z" fill="black"/>
<path d="M106.641 19.6297C106.188 18.8162 105.94 17.8774 105.94 16.7927V2.25293H109.422V16.7093C109.422 17.502 109.566 18.086 109.875 18.4615C110.184 18.837 110.637 19.0248 111.255 19.0248C112.47 19.0248 113.088 18.2529 113.088 16.7093V2.25293H116.57V16.7927C116.57 17.8566 116.343 18.7953 115.89 19.6297C115.437 20.4433 114.798 21.09 113.995 21.528C113.191 21.9661 112.264 22.1956 111.255 22.1956C110.246 22.1956 109.339 21.9661 108.536 21.528C107.733 21.0691 107.094 20.4433 106.641 19.6297Z" fill="black"/>
<path d="M128.023 10.3677H132.534V13.4967H128.023V18.8162H133.276V21.9661H124.583V2.25293H133.276V5.42372H128.023V10.3677Z" fill="black"/>
<path d="M144.275 14.0391V21.9661H140.794V2.25293H146.108C148.024 2.25293 149.384 2.71186 150.187 3.65058C150.99 4.58931 151.382 6.0704 151.382 8.13559C151.382 9.4498 151.196 10.5554 150.846 11.4315C150.496 12.3077 149.899 12.9544 149.095 13.4133L152 21.987H148.395L145.944 14.06H144.275V14.0391ZM146.088 10.91C146.788 10.91 147.262 10.6806 147.53 10.2008C147.798 9.74185 147.921 9.05345 147.921 8.13559C147.921 7.21773 147.798 6.52933 147.55 6.0704C147.303 5.61147 146.809 5.382 146.088 5.382H144.275V10.8892H146.088V10.91Z" fill="black"/>
<path d="M38.9525 27.828C38.0873 27.828 37.4281 28.4955 37.4281 29.3925C37.4281 30.2895 38.0873 30.957 38.9525 30.957C39.4056 30.957 39.9 30.7276 40.2502 30.3521L40.9094 31.0822C40.3738 31.6454 39.6116 32.0001 38.8701 32.0001C37.3663 32.0001 36.2334 30.8736 36.2334 29.3925C36.2334 27.9323 37.3869 26.8267 38.9113 26.8267C39.6322 26.8267 40.3944 27.1604 40.8888 27.6611L40.2296 28.4746C39.9206 28.0783 39.4056 27.828 38.9525 27.828Z" fill="black"/>
<path d="M47.0688 29.4134C47.0688 30.8736 45.8947 32.0209 44.3703 32.0209C42.8254 32.0209 41.6719 30.8945 41.6719 29.4134C41.6719 27.9323 42.846 26.8267 44.3703 26.8267C45.9153 26.8267 47.0688 27.9323 47.0688 29.4134ZM42.846 29.4134C42.846 30.3104 43.567 30.9988 44.3909 30.9988C45.2149 30.9988 45.9153 30.3104 45.9153 29.4134C45.9153 28.5164 45.2355 27.828 44.3909 27.828C43.5464 27.828 42.846 28.5164 42.846 29.4134Z" fill="black"/>
<path d="M49.6229 26.8682L51.0855 29.9764L52.548 26.8682H53.8045V31.9581H52.7746V28.5161L51.4357 31.4366H50.6941L49.3551 28.5161V31.9581H48.3252V26.8682H49.6229Z" fill="black"/>
<path d="M59.6131 28.6414C59.6131 29.8305 58.8715 30.5189 57.5944 30.5189H56.6056V31.9791H55.4727V26.8892H57.615C58.8921 26.8683 59.6131 27.515 59.6131 28.6414ZM58.5419 28.6623C58.5419 28.0991 58.1917 27.807 57.5532 27.807H56.6056V29.5384H57.5532C58.1711 29.5384 58.5419 29.2464 58.5419 28.6623Z" fill="black"/>
<path d="M63.8776 30.9777H61.5499L61.1585 31.9581H59.9844L62.1679 26.8682H63.342L65.4843 31.9581H64.269L63.8776 30.9777ZM63.5068 30.039L62.724 28.0572L61.9207 30.039H63.5068Z" fill="black"/>
<path d="M67.5847 26.8683L70.036 30.1434V26.8683H71.1072V31.9583H70.0772L67.6465 28.6831V31.9583H66.5342V26.8683H67.5847ZM69.3974 26.2842C68.9649 26.2842 68.7795 25.9296 68.5529 25.9296C68.3881 25.9296 68.3057 26.0339 68.3057 26.2633H67.6259C67.6259 25.5332 67.8731 25.1577 68.3469 25.1577C68.7589 25.1577 68.9649 25.5123 69.1915 25.5123C69.3562 25.5123 69.4386 25.408 69.4386 25.1994H70.1184C70.1184 25.9087 69.8712 26.2842 69.3974 26.2842Z" fill="black"/>
<path d="M74.5265 25.5956L73.6201 26.3883H72.7344L73.4965 25.1992L74.5265 25.5956ZM73.8673 26.8681V31.958H72.7344V26.8681H73.8673Z" fill="black"/>
<path d="M78.8522 30.9777H76.5245L76.1331 31.9581H74.959L77.1425 26.8682H78.3167L80.459 31.9581H79.2436L78.8522 30.9777ZM78.4814 30.039L77.6987 28.0572L76.8953 30.039H78.4814Z" fill="black"/>
<path d="M88.9869 29.4131C88.9869 30.9151 87.8952 31.9581 86.3091 31.9581H84.208V26.8682H86.3503C87.9158 26.8682 88.9869 27.9112 88.9869 29.4131ZM87.8334 29.4131C87.8334 28.4744 87.1948 27.8277 86.3297 27.8277H85.3615V30.9777H86.3915C87.2154 30.9985 87.8334 30.3519 87.8334 29.4131Z" fill="black"/>
<path d="M94.1166 26.8682V27.8277H91.4181V28.9334H93.8488V29.8929H91.4181V31.0194H94.199V31.979H90.2852V26.889H94.1166V26.8682Z" fill="black"/>
<path d="M102.15 26.8682V27.8277H99.4513V28.9334H101.882V29.8929H99.4513V31.0194H102.232V31.979H98.3184V26.889H102.15V26.8682Z" fill="black"/>
<path d="M105.385 27.7862C105.014 27.7862 104.746 27.9323 104.746 28.2035C104.746 29.1422 107.424 28.6207 107.424 30.4564C107.424 31.4577 106.559 32.0001 105.446 32.0001C104.622 32.0001 103.798 31.6872 103.222 31.1865L103.675 30.2478C104.19 30.7067 104.931 31.0196 105.467 31.0196C105.941 31.0196 106.209 30.8527 106.209 30.5398C106.209 29.5802 103.531 30.1435 103.531 28.3286C103.531 27.4108 104.313 26.8267 105.488 26.8267C106.188 26.8267 106.888 27.0353 107.403 27.3899L106.971 28.3495C106.435 27.9948 105.797 27.7862 105.385 27.7862Z" fill="black"/>
<path d="M112.388 26.8682V27.8486H110.843V31.9581H109.71V27.8486H108.186V26.8682H112.388Z" fill="black"/>
<path d="M116.631 31.9581L115.827 30.4979H115.725H114.674V31.9581H113.541V26.8682H115.725C117.043 26.8682 117.784 27.5148 117.784 28.6413C117.784 29.434 117.455 29.9972 116.837 30.2893L117.908 31.979H116.631V31.9581ZM114.674 29.5383H115.725C116.342 29.5383 116.713 29.2463 116.713 28.6622C116.713 28.0989 116.363 27.8069 115.725 27.8069H114.674V29.5383Z" fill="black"/>
<path d="M122.605 30.9777H120.277L119.886 31.9581H118.712L120.895 26.8682H122.07L124.212 31.9581H122.997L122.605 30.9777ZM122.234 30.039L121.452 28.0572L120.648 30.039H122.234Z" fill="black"/>
<path d="M128.723 26.8682V27.8486H127.178V31.9581H126.065V27.8486H124.541V26.8682H128.723Z" fill="black"/>
<path d="M133.707 26.8682V27.8277H131.009V28.9334H133.44V29.8929H131.009V31.0194H133.79V31.979H129.876V26.889H133.707V26.8682Z" fill="black"/>
<path d="M138.569 29.3925H139.558V31.3534C139.022 31.7497 138.219 32.0209 137.519 32.0209C135.994 32.0209 134.841 30.8945 134.841 29.4134C134.841 27.9531 136.015 26.8267 137.581 26.8267C138.322 26.8267 139.084 27.1187 139.599 27.5776L138.961 28.3912C138.59 28.0366 138.075 27.828 137.581 27.828C136.695 27.828 135.994 28.5164 135.994 29.4134C135.994 30.3104 136.695 30.9988 137.581 30.9988C137.889 30.9988 138.24 30.8945 138.569 30.7276V29.3925Z" fill="black"/>
<path d="M142.215 26.8682V31.9581H141.082V26.8682H142.215Z" fill="black"/>
<path d="M147.2 30.9777H144.872L144.481 31.9581H143.307L145.49 26.8682H146.664L148.807 31.9581H147.591L147.2 30.9777ZM146.829 30.039L146.046 28.0572L145.243 30.039H146.829Z" fill="black"/>
<path d="M27.5199 13.58C27.5199 15.7078 25.8308 17.4184 23.7297 17.4184C21.6286 17.4184 19.9395 15.7078 19.9395 13.58C19.9395 11.4523 21.6286 9.7417 23.7297 9.7417C25.8308 9.7417 27.5199 11.4523 27.5199 13.58Z" fill="black"/>
<path d="M12.071 24.4485C5.41754 24.4485 0 18.9622 0 12.2243C0 5.48631 5.41754 0 12.071 0C18.7245 0 24.142 5.48631 24.142 12.2243C24.142 18.9622 18.7245 24.4485 12.071 24.4485ZM12.071 0.792699C5.85012 0.792699 0.782762 5.92438 0.782762 12.2243C0.782762 18.5241 5.85012 23.6349 12.0504 23.6349C18.2713 23.6349 23.3181 18.5033 23.3181 12.2243C23.3387 5.92438 18.2919 0.792699 12.071 0.792699Z" fill="black"/>
</g>
<defs>
<clipPath id="clip0">
<rect width="152" height="32" fill="white"/>
</clipPath>
</defs>
</svg>
