<svg width="296" height="52" viewBox="0 0 296 52" fill="none" xmlns="http://www.w3.org/2000/svg">
<g clip-path="url(#clip0)">
<path opacity="0.7" d="M272.583 8.89648L267.227 32.6723H281.46L276.103 8.89648H272.583ZM270.288 30.3714L274.42 12.2711L278.399 30.3714H270.288Z" fill="#A46236"/>
<path opacity="0.7" d="M279.777 4.44824H269.063L258.809 47.5515H261.41L263.859 37.2742H284.674L287.123 47.5515H289.725L279.777 4.44824ZM264.471 34.8199L270.9 6.90252H277.787L284.215 34.8199H264.471Z" fill="#A46236"/>
<path opacity="0.7" d="M283.603 0H265.084L252.687 52H265.543L267.839 41.7227H281.001L283.297 52H296.153L283.603 0ZM285.286 49.5457L282.991 39.2684H265.696L263.4 49.5457H255.901L267.073 2.45428H281.46L292.633 49.5457H285.286Z" fill="#A46236"/>
<path opacity="0.7" d="M216.107 4.44824V47.5515H218.709V6.90252H220.852L238.912 47.5515H245.493V4.44824H242.891V45.0972H240.749L222.689 4.44824H216.107Z" fill="#A46236"/>
<path opacity="0.7" d="M237.994 27.1504L225.903 0H211.21V52H223.607V25.0029L235.698 52H250.391V0H237.994V27.1504ZM240.596 2.45428H247.789V49.5457H237.535L221.005 13.1917V49.5457H213.812V2.45428H224.066L240.596 38.6549V2.45428Z" fill="#A46236"/>
<path opacity="0.7" d="M168.968 4.44824V47.5515H171.57V6.90252H173.712L191.772 47.5515H198.354V4.44824H195.752V45.0972H193.609L175.549 4.44824H168.968Z" fill="#A46236"/>
<path opacity="0.7" d="M190.854 27.1504L178.763 0H164.07V52H176.467V25.0029L188.558 52H203.251V0H190.854V27.1504ZM193.456 2.45428H200.649V49.5457H190.395L173.866 13.1917V49.5457H166.672V2.45428H176.927L193.456 38.6549V2.45428Z" fill="#A46236"/>
<path opacity="0.7" d="M137.593 8.89648L132.236 32.6723H146.47L141.113 8.89648H137.593ZM135.297 30.3714L139.43 12.2711L143.409 30.3714H135.297Z" fill="#A46236"/>
<path opacity="0.7" d="M133.92 4.44824L123.818 47.5515H126.42L128.869 37.2742H149.684L152.133 47.5515H154.735L144.786 4.44824H133.92ZM129.481 34.8199L135.909 6.90252H142.797L149.225 34.8199H129.481Z" fill="#A46236"/>
<path opacity="0.7" d="M130.093 0L117.696 52H130.553L132.848 41.7227H146.011L148.306 52H161.163L148.613 0H130.093ZM150.296 49.5457L148 39.2684H130.706L128.41 49.5457H120.91L132.083 2.45428H146.47L157.643 49.5457H150.296Z" fill="#A46236"/>
<path opacity="0.7" d="M113.87 4.44824L104.381 45.0972H97.4933L88.0042 4.44824H85.4023L95.5037 47.5515H106.37L116.472 4.44824H113.87Z" fill="#A46236"/>
<path opacity="0.7" d="M109.737 0L101.013 39.7286L92.1365 0H79.2803L91.6774 52H110.197L122.594 0H109.737ZM108.054 49.5457H93.667L82.6474 2.45428H90.1469L99.3299 43.1032H102.85L112.033 2.45428H119.38L108.054 49.5457Z" fill="#A46236"/>
<path opacity="0.7" d="M59.5365 8.89648L54.1797 32.6723H68.4134L63.0566 8.89648H59.5365ZM57.0876 30.3714L61.22 12.1177L65.1993 30.218H57.0876V30.3714Z" fill="#A46236"/>
<path opacity="0.7" d="M55.864 4.44824L45.7627 47.5515H48.3646L50.8134 37.2742H71.6283L74.0771 47.5515H76.6789L66.5776 4.44824H55.864ZM51.2725 34.8199L57.7006 6.90252H64.5879L71.0161 34.8199H51.2725Z" fill="#A46236"/>
<path opacity="0.7" d="M52.0377 0L39.6406 52H52.4969L54.7926 41.7227H67.955L70.2508 52H83.107L70.4038 0H52.0377ZM72.0874 49.5457L69.7916 39.2684H52.6499L50.3542 49.5457H42.8547L54.0274 2.45428H68.4142L79.5868 49.5457H72.0874Z" fill="#A46236"/>
<path opacity="0.7" d="M7.49932 4.44824H4.89746V47.5515H7.49932V25.9232H30.1508V47.5515H32.9057V4.44824H30.1508V23.4689H7.49932V4.44824Z" fill="#A46236"/>
<path opacity="0.7" d="M25.4064 0V19.0206H12.3971V0H0V52H12.3971V30.3717H25.4064V52H37.8035V0H25.4064ZM35.0486 49.5457H27.8552V27.9174H9.79524V49.5457H2.60186V2.45428H9.79524V21.4749H28.0083V2.45428H35.2017V49.5457H35.0486Z" fill="#A46236"/>
</g>
<defs>
<clipPath id="clip0">
<rect width="296" height="52" fill="white"/>
</clipPath>
</defs>
</svg>
