<svg width="28" height="27" viewBox="0 0 28 27" fill="none" xmlns="http://www.w3.org/2000/svg">
<path d="M28 16.3024V26.0446C28 26.3339 27.8056 26.5268 27.5139 26.5268H22.3613C22.0696 26.5268 21.8752 26.3339 21.8752 26.0446V16.8812C21.8752 14.4698 21.0002 12.83 18.8614 12.83C17.2086 12.83 16.2364 13.891 15.7503 15.0485C15.5559 15.4343 15.5559 15.9166 15.5559 16.4953V26.0446C15.5559 26.3339 15.3615 26.5268 15.0698 26.5268H9.91717C9.62551 26.5268 9.43107 26.3339 9.43107 26.0446C9.43107 23.6331 9.52829 11.8654 9.43107 9.06818C9.72273 8.87527 9.91717 8.68235 10.1116 8.68235H15.167C15.4587 8.68235 15.6531 8.87527 15.6531 9.16464V11.2867C15.6531 11.2867 15.6531 11.2867 15.6531 11.3831V11.2867C16.4309 10.0327 17.8892 8.29653 21.0974 8.29653C24.9862 8.20007 28 10.8044 28 16.3024ZM0.875746 26.5268H6.02838C6.32004 26.5268 6.51448 26.3339 6.51448 26.0446V9.06818C6.41726 8.87527 6.22282 8.68235 5.93116 8.68235H0.875746C0.584088 8.68235 0.389648 8.87527 0.389648 9.06818V26.0446C0.389648 26.3339 0.584088 26.5268 0.875746 26.5268Z" fill="white"/>
<path d="M3.20825 6.36614C4.98011 6.36614 6.41649 4.94103 6.41649 3.18307C6.41649 1.42511 4.98011 0 3.20825 0C1.43638 0 0 1.42511 0 3.18307C0 4.94103 1.43638 6.36614 3.20825 6.36614Z" fill="white"/>
</svg>
